<svg width="542" height="811" viewBox="0 0 542 811" fill="none" xmlns="http://www.w3.org/2000/svg">
<path fill-rule="evenodd" clip-rule="evenodd" d="M344.894 193.533C383.326 193.533 414.335 224.525 414.335 262.935C414.335 301.345 383.326 332.501 344.894 332.501C306.463 332.501 275.453 301.345 275.453 262.935C275.453 224.525 306.463 193.533 344.894 193.533ZM345.719 87.2054C345.719 85.2272 347.203 83.7435 349.183 83.7435C351.162 83.7435 352.646 85.2272 352.646 87.2054V149.848C352.646 151.662 351.162 153.31 349.183 153.31C347.203 153.31 345.719 151.662 345.719 149.848V87.2054ZM300.195 91.1618C299.865 89.1836 301.184 87.3702 303.164 87.0405C305.143 86.8757 306.957 88.1945 307.122 90.1727L316.029 151.991C316.359 153.969 315.04 155.783 313.06 155.948C311.246 156.277 309.432 154.959 309.102 152.98L300.195 91.1618ZM255.825 101.382C255.166 99.5691 256.32 97.5909 258.135 97.0963C259.949 96.6018 261.928 97.5909 262.423 99.4042L280.237 159.409C280.732 161.388 279.742 163.201 277.763 163.86C275.948 164.355 273.969 163.366 273.474 161.388L255.825 101.382ZM213.27 118.032C212.446 116.219 213.27 114.076 214.92 113.416C216.734 112.592 218.878 113.252 219.703 115.065L245.764 171.938C246.589 173.751 245.764 175.73 243.949 176.554C242.3 177.378 240.156 176.554 239.331 174.905L213.27 118.032ZM173.519 140.122C172.365 138.474 172.859 136.331 174.509 135.177C176.158 134.187 178.302 134.682 179.292 136.331L213.27 188.753C214.425 190.401 213.93 192.544 212.281 193.698C210.631 194.687 208.487 194.193 207.497 192.544L173.519 140.122ZM391.243 90.1727C391.408 88.1945 393.222 86.8757 395.201 87.0405C397.016 87.3702 398.5 89.1836 398.17 91.1618L389.264 152.98C388.934 154.959 387.119 156.277 385.305 155.948C383.326 155.783 382.006 153.969 382.171 151.991L391.243 90.1727ZM435.777 99.4042C436.437 97.5909 438.416 96.6018 440.231 97.0963C442.045 97.5909 443.2 99.5691 442.54 101.382L424.891 161.388C424.396 163.366 422.417 164.355 420.438 163.86C418.623 163.201 417.634 161.388 418.128 159.409L435.777 99.4042ZM478.662 115.065C479.487 113.252 481.631 112.592 483.281 113.416C485.095 114.076 485.92 116.219 485.095 118.032L459.034 174.905C458.209 176.554 456.065 177.378 454.251 176.554C452.601 175.73 451.777 173.751 452.601 171.938L478.662 115.065ZM519.073 136.331C520.063 134.682 522.207 134.187 523.856 135.177C525.506 136.331 526.001 138.474 524.846 140.122L490.868 192.544C489.878 194.193 487.734 194.687 486.085 193.698C484.435 192.544 483.94 190.401 485.095 188.753L519.073 136.331ZM155.211 258.484C218.713 201.941 282.381 173.751 345.884 173.916C409.386 173.916 472.394 202.27 534.743 258.484L542 265.078L534.578 271.507C472.394 326.237 409.386 352.613 345.884 352.118C282.381 351.624 218.878 324.259 155.376 271.672L147.458 265.243L155.211 258.484ZM345.884 191.39C289.474 191.225 232.404 215.623 174.674 264.748C232.239 310.412 289.474 334.15 346.049 334.48C402.459 334.974 459.034 312.225 515.444 264.913C459.034 215.953 402.459 191.39 345.884 191.39ZM148.118 5.27518L25.2362 480.701L131.129 448.391L144.654 459.435L135.253 560.159C284.36 579.776 360.729 599.887 362.213 621.153C363.697 643.572 289.309 661.376 136.572 675.223L155.211 809.741L133.933 810.4L115.13 665.827L124.696 654.947C270.34 642.254 341.595 631.538 341.1 622.636C340.441 612.581 266.711 598.404 122.387 579.94L113.15 568.401L122.222 473.118L13.3603 506.418L0 493.559L127.5 0L148.118 5.27518ZM344.894 226.338C365.182 226.338 381.511 242.823 381.511 262.935C381.511 283.211 365.182 299.531 344.894 299.531C324.606 299.531 308.277 283.211 308.277 262.935C308.277 242.823 324.606 226.338 344.894 226.338Z" fill="#363529"/>
</svg>
