<svg width="1156" height="992" viewBox="0 0 1156 992" fill="none" xmlns="http://www.w3.org/2000/svg">
<path d="M261.477 326.472C250.509 347.625 247.571 383.859 252.468 437.328C254.622 460.244 256.581 497.849 257.364 520.96C257.952 543.876 259.714 578.934 261.085 598.716C262.652 618.302 262.848 643.568 261.477 654.34C259.323 673.338 249.334 707.222 244.437 712.118C239.737 716.819 230.531 698.996 216.038 656.298C198.606 605.179 189.989 591.469 164.723 573.254C141.807 556.998 124.964 550.339 106.357 550.535C81.0912 550.731 64.835 570.121 69.9273 594.407C70.7107 599.108 79.1327 614.189 88.1422 628.291C109.687 661.195 120.263 683.131 148.467 753.248C161.197 784.782 174.516 815.336 178.237 821.407C181.958 827.479 199.39 850.394 217.017 872.722C269.116 938.531 288.114 970.456 294.577 1004.73C297.515 1020.2 302.216 1022.95 324.739 1021.18C335.903 1020.6 381.538 1019.22 425.998 1018.64C520.794 1017.46 519.815 1017.66 515.506 987.495C512.96 968.889 514.722 939.706 519.423 924.821C520.794 920.708 526.67 907.781 532.35 896.225C551.935 857.445 576.222 768.525 587.973 692.924C592.674 663.153 596.004 653.556 616.177 607.921C661.812 504.704 674.347 452.605 657.307 435.566C642.618 420.876 605.405 429.102 590.715 450.451C587.582 455.152 579.16 473.366 572.109 490.994C558.007 526.64 527.061 590.882 523.34 592.644C522.165 593.428 524.711 581.48 529.412 566.203C537.638 538.392 555.069 433.215 557.811 393.26C560.749 353.893 553.698 332.348 534.112 319.813C519.619 310.804 507.28 312.175 495.528 323.926C480.447 339.399 475.551 356.439 466.737 427.536C461.84 464.945 455.965 497.457 449.11 523.115C445.388 537.412 445.192 534.083 447.935 496.478C449.11 481.593 451.068 450.647 452.048 428.123C453.223 405.403 455.181 371.716 456.552 353.501C459.294 317.071 457.532 300.032 450.089 288.672C443.038 278.095 426.978 270.261 413.659 270.653C403.866 270.653 400.341 272.22 392.898 280.054C381.343 292.001 376.054 309.041 369.395 356.047C364.695 390.91 363.519 408.146 359.406 501.962C356.469 573.842 350.984 564.832 349.026 484.139C347.459 425.773 339.233 351.738 331.79 329.41C324.348 306.691 318.276 301.011 301.236 300.032C289.093 299.64 286.351 300.815 276.362 309.629C270.095 315.113 263.632 322.751 261.477 326.472ZM300.257 325.297C300.845 325.885 303.195 332.152 305.545 338.812C313.38 363.098 320.431 430.473 321.997 499.024C323.368 548.968 326.698 564.441 339.429 577.172C350.201 587.944 360.973 588.531 370.766 578.738C381.93 567.574 384.672 554.256 386.827 500.003C390.94 397.177 396.619 342.141 406.217 312.958C410.917 298.465 411.505 297.877 417.381 298.661C431.286 300.815 433.049 311.587 428.74 366.036C427.173 384.447 424.823 422.443 423.256 450.647C421.494 479.046 419.339 513.322 418.556 527.032C416.01 567.966 424.431 591.273 440.884 588.923C462.428 585.789 481.23 530.165 493.961 431.649C500.229 382.684 507.084 351.542 513.351 345.275C524.515 334.111 533.329 362.902 529.803 399.332C524.907 446.142 510.218 532.907 503.167 555.627C499.249 567.77 495.528 583.635 494.745 590.686C491.807 622.611 514.331 645.918 531.37 628.878C546.256 613.993 575.83 556.215 601.488 492.561C613.827 461.811 616.765 458.089 628.516 457.306L637.134 456.523L636.155 469.253C634.979 486.881 617.156 537.216 592.086 593.232C566.821 649.835 567.017 649.247 560.749 688.419C548.802 763.041 523.34 854.311 502.971 893.875C491.415 917.182 487.106 936.376 486.91 967.91L487.106 990.825L422.669 991.804C387.414 992.196 350.005 992.784 339.821 992.784L321.018 993.175L316.317 976.331C310.246 954.591 280.084 907.977 236.603 853.136C218.78 831.004 202.328 808.676 199.782 803.78C197.235 798.884 184.7 769.113 171.97 737.58C146.508 674.122 133.386 647.289 111.449 613.993C88.9256 579.718 92.2552 572.079 124.964 582.851C139.653 587.748 144.354 590.882 158.064 604.2C173.732 619.869 174.124 620.652 189.205 663.545C197.431 687.44 207.42 711.922 210.946 717.798C218.78 731.116 231.902 740.713 244.242 742.085C252.663 743.064 254.23 742.28 263.044 731.508C283.022 706.83 293.01 660.411 289.093 608.705C288.114 593.624 285.959 553.473 284.588 519.197C283.217 484.922 280.671 442.421 278.908 424.598C275.775 390.91 276.754 373.087 282.826 350.563C286.155 338.616 297.319 322.359 300.257 325.297Z" fill="#009179"/>
<path d="M799.125 360.749C801.153 373.005 811.243 389.05 829.988 409.843C838.044 418.737 850.607 433.825 858.153 443.229C865.555 452.612 877.241 466.698 883.992 474.528C890.763 482.216 898.736 492.703 901.528 497.628C906.562 506.233 912.975 523.498 912.46 527.072C911.966 530.502 902.556 525.937 883.17 512.638C859.926 496.741 852.046 493.709 835.809 493.995C821.165 494.366 812.053 496.847 804.346 502.74C793.86 510.713 793.129 523.885 802.84 532.434C804.635 534.152 812.862 537.817 821.028 540.891C840.299 547.899 851.566 553.753 885.24 574.218C900.404 583.406 915.507 592.002 918.957 593.375C922.407 594.747 936.841 598.87 951.174 602.686C993.478 613.888 1011.38 621.282 1024.78 633.573C1030.84 639.115 1033.66 638.792 1042.52 631.021C1046.99 627.289 1065.62 612.463 1083.99 598.332C1123.2 568.234 1122.86 568.621 1111.64 557.375C1104.76 550.402 1096.38 537.668 1093.7 529.986C1092.98 527.84 1091.4 520.609 1090.16 514.01C1086.23 491.703 1068.59 446.995 1049.89 411.762C1042.55 397.865 1040.94 392.819 1035.11 367.466C1021.93 310.121 1010.89 284.456 998.452 282.664C987.731 281.119 974.764 296.176 975.3 309.677C975.46 312.618 977.633 322.853 980.194 332.414C985.441 351.7 992.586 388.185 991.583 390.084C991.337 390.778 988.668 384.995 985.859 377.149C980.607 362.968 955.035 313.615 943.7 296.077C932.631 278.725 922.958 271.932 910.867 272.816C902.002 273.582 897.279 278.008 896.043 286.584C894.579 297.754 897.857 306.398 916.383 338.832C926.023 355.979 933.725 371.388 938.876 384.24C941.788 391.372 940.667 390.043 930.066 373.487C925.908 366.906 917.06 353.375 910.434 343.665C903.829 333.813 894.125 319.137 889.008 311.105C878.775 295.039 872.717 288.476 866.062 286.058C859.815 283.845 850.663 285.59 845.225 289.914C841.137 292.972 840.154 294.728 839.494 300.323C838.401 308.92 841.515 317.685 853.417 339.389C862.343 355.412 867.235 362.975 894.82 403.426C916.044 434.353 910.94 432.304 884.92 399.228C866.036 375.35 839.479 347.011 829.398 340.014C819.195 332.854 814.886 332.379 807.466 337.292C802.274 340.921 801.496 342.268 800.079 349.067C799.175 353.314 798.863 358.522 799.125 360.749ZM814.948 348.146C815.377 348.208 818.316 350.09 821.377 352.136C832.233 359.828 856.22 385.754 878.285 413.884C894.456 434.307 900.679 439.726 909.97 441.065C917.832 442.198 922.512 439.079 923.542 431.932C924.716 423.784 921.701 417.367 905.656 394.045C875.257 349.832 860.439 325.081 855.331 309.9C852.767 302.381 852.829 301.952 855.526 300.444C862.005 297 866.105 300.947 881.312 325.024C886.408 333.2 897.294 349.797 905.449 362.061C913.583 374.468 923.389 389.45 927.344 395.419C939.066 413.303 949.862 420.403 955.996 414.284C964.012 406.246 954.489 377.152 929.034 332.046C916.357 309.647 909.493 294.505 910.152 289.93C911.326 281.783 923.998 291.05 933.904 307.36C946.48 328.432 967.447 369.243 971.599 380.93C973.756 387.223 977.158 395.009 979.033 398.197C987.777 412.443 1004.46 415.139 1006.25 402.703C1007.82 391.839 1002.12 358.481 992.949 323.892C988.496 307.201 988.561 304.73 993.222 300.732L996.575 297.714L1000.14 303.334C1005.16 311.061 1013.44 337.642 1020.47 368.857C1027.6 400.38 1027.5 400.073 1037.11 418.384C1055.43 453.269 1073.31 499.326 1077.16 522.205C1079.62 535.544 1083.81 544.903 1093.58 558.129L1100.82 567.635L1074.22 588.17C1059.63 599.344 1044.19 611.273 1039.94 614.454L1032.21 620.49L1024.99 614.927C1015.67 607.747 988.515 597.706 953.234 588.392C938.88 584.719 925.038 580.536 922.446 579.287C919.854 578.038 905.322 569.524 890.159 560.335C859.709 541.795 845.85 534.691 826.292 527.642C806.184 520.368 805.188 516.139 822.208 510.42C829.87 507.876 832.811 507.717 842.695 508.995C854.13 510.642 854.538 510.847 874.231 524.044C885.128 531.45 896.945 538.552 900.252 539.904C907.682 543.017 916.158 542.925 921.738 539.643C925.56 537.422 925.969 536.605 926.284 529.355C926.917 512.813 916.589 490.314 898.804 469.951C893.685 463.961 880.245 447.871 868.968 433.99C857.69 420.109 843.353 403.16 837.05 396.27C825.22 383.185 820.062 375.438 815.562 364.138C813.221 358.11 812.804 347.837 814.948 348.146Z" fill="#6A6A6A"/>
<path d="M189.134 289.795C185.535 276.243 172.47 259.304 149.171 237.963C139.161 228.838 123.421 213.241 113.93 203.488C104.603 193.744 89.9562 179.177 81.528 171.107C73.0921 163.2 63.0046 152.277 59.337 147.044C52.7539 137.92 43.6891 119.213 43.8826 115.142C44.0683 111.235 55.1321 115.351 78.3455 128.203C106.172 143.559 115.352 146.117 133.563 144.045C149.976 142.051 159.946 138.282 167.97 130.831C178.893 120.743 178.294 105.866 166.463 97.3074C164.261 95.5709 154.623 92.3388 145.118 89.7657C122.712 83.9685 109.423 78.6046 69.3848 59.2413C51.3584 50.5519 33.4639 42.5215 29.4401 41.3511C25.4162 40.1808 8.75486 37.1043 -7.75913 34.3613C-56.4948 26.3335 -77.405 19.9547 -93.7881 7.59026C-101.193 2.01655 -104.325 2.68358 -113.434 12.3678C-118.062 17.0432 -137.388 35.7063 -156.513 53.563C-197.321 91.6025 -196.972 91.1295 -183.155 102.556C-174.681 109.649 -163.895 123.053 -160.049 131.395C-159.018 133.729 -156.459 141.683 -154.357 148.963C-147.532 173.601 -122.905 221.93 -98.0919 259.499C-88.3529 274.322 -86.0032 279.818 -76.7205 307.674C-55.7277 370.68 -40.5606 398.326 -26.3959 398.999C-14.185 399.579 -1.23918 381.266 -3.29505 366.155C-3.79153 362.868 -7.33562 351.604 -11.244 341.137C-19.2159 320.035 -31.1745 279.813 -30.2521 277.573C-30.0506 276.766 -26.4294 282.976 -22.4282 291.489C-14.9995 306.854 19.0483 359.548 33.672 378.03C47.9778 396.333 59.5768 402.922 73.0667 400.626C82.9437 398.811 87.7733 393.329 88.2376 383.56C88.6784 370.853 84.0646 361.496 59.7561 327.052C47.0784 308.826 36.7656 292.344 29.5929 278.459C25.5529 270.761 26.9563 272.133 40.6496 289.591C46.0307 296.537 57.4288 310.786 65.9191 320.981C74.4018 331.338 86.8854 346.781 93.4994 355.254C106.727 372.201 114.241 378.922 121.978 380.921C129.235 382.735 139.329 379.788 144.973 374.345C149.237 370.468 150.151 368.39 150.29 362.033C150.592 352.256 146.148 342.744 130.439 319.641C118.684 302.602 112.372 294.632 77.023 252.157C49.8461 219.698 55.8005 221.449 88.5985 255.808C112.387 280.599 145.277 309.577 157.357 316.352C169.592 323.297 174.484 323.367 182.29 317.047C187.733 312.411 188.461 310.814 189.321 303.022C189.879 298.153 189.669 292.268 189.134 289.795ZM172.714 305.659C172.226 305.636 168.722 303.838 165.062 301.869C152.036 294.396 122.294 267.853 94.4737 238.627C74.1048 217.424 66.5297 212.005 55.9469 211.502C46.9922 211.077 42.0695 215.085 41.6826 223.226C41.2415 232.506 45.3201 239.391 65.8598 263.865C104.776 310.263 124.091 336.474 131.465 352.979C135.156 361.15 135.133 361.639 132.265 363.624C125.357 368.191 120.325 364.198 100.646 338.786C94.0399 330.15 80.021 312.676 69.5379 299.776C59.0625 286.713 46.4316 270.937 41.3451 264.658C26.2485 245.827 13.3547 239.014 7.12205 246.55C-1.01766 256.443 12.8164 288.105 46.2745 336.039C62.93 359.839 72.2737 376.111 72.0261 381.321C71.585 390.602 56.3496 381.555 43.4627 364.298C27.0633 341.979 -0.889892 298.387 -6.81426 285.704C-9.91604 278.866 -14.5763 270.485 -17.0265 267.105C-28.3859 252.042 -47.4195 250.811 -48.0927 264.976C-48.6808 277.35 -38.684 314.214 -24.6556 352.086C-17.8547 370.359 -17.6606 373.142 -22.467 378.135L-25.909 381.888L-30.5225 375.958C-36.9892 367.818 -49.1561 338.846 -60.4164 304.532C-71.824 269.886 -71.6767 270.219 -84.4552 250.683C-108.795 213.463 -133.841 163.645 -140.635 138.355C-144.831 123.633 -150.553 113.57 -162.952 99.7633L-172.109 89.8636L-144.441 63.9276C-129.246 49.8004 -113.191 34.735 -108.757 30.7031L-100.726 23.089L-92.0108 28.5618C-80.7606 35.6237 -49.1745 43.9786 -8.53298 50.6425C7.98875 53.2228 23.9911 56.4311 27.0381 57.555C30.0851 58.6789 47.3283 66.6784 65.3547 75.3678C101.562 92.9172 117.898 99.405 140.631 105.218C164.006 111.224 165.58 115.868 147.075 124.127C138.741 127.81 135.454 128.306 124.212 127.935C111.187 127.316 110.706 127.13 87.1594 114.425C74.1183 107.278 60.0772 100.573 56.2161 99.4105C47.5326 96.7132 38.0198 97.7297 32.1047 102.018C28.0502 104.925 27.6781 105.887 28.1053 114.066C29.1768 132.719 43.204 156.884 65.3793 177.846C71.776 184.025 88.6091 200.653 102.775 215.034C116.941 229.414 134.875 246.911 142.698 253.973C157.399 267.4 164.029 275.548 170.302 287.758C173.582 294.278 175.157 305.775 172.714 305.659Z" fill="#EA9944"/>
<path d="M154.296 262.28C153.955 262.28 153.613 262.152 153.272 261.896C152.931 261.64 152.675 261.085 152.504 260.232L142.648 220.552C142.563 219.869 142.307 219.571 141.88 219.656C141.453 219.656 141.155 219.955 140.984 220.552L129.976 260.232C129.72 261.085 129.421 261.64 129.08 261.896C128.824 262.152 128.525 262.28 128.184 262.28C127.843 262.28 127.459 262.152 127.032 261.896C126.691 261.64 126.435 261.085 126.264 260.232L106.04 179.08C105.443 176.691 104.76 175.027 103.992 174.088C103.309 173.149 102.115 172.509 100.408 172.168L98.488 171.784C97.2933 171.528 96.696 170.973 96.696 170.12C96.696 169.267 97.336 168.84 98.616 168.84H119.224C120.419 168.84 121.016 169.309 121.016 170.248C121.016 171.016 120.376 171.528 119.096 171.784L117.688 172.04C116.237 172.296 115.299 172.808 114.872 173.576C114.531 174.259 114.573 175.539 115 177.416L130.104 239.88C130.275 240.477 130.531 240.776 130.872 240.776C131.299 240.776 131.597 240.477 131.768 239.88L137.528 219.016C138.467 215.773 138.936 212.787 138.936 210.056C138.936 207.325 138.509 204.296 137.656 200.968L132.28 179.08C131.683 176.691 131.085 174.984 130.488 173.96C129.976 172.936 129.251 172.339 128.312 172.168L126.392 171.784C125.197 171.528 124.6 170.973 124.6 170.12C124.6 169.267 125.24 168.84 126.52 168.84H144.056C145.251 168.84 145.848 169.309 145.848 170.248C145.848 171.016 145.208 171.528 143.928 171.784L142.52 172.04C141.411 172.211 140.728 172.68 140.472 173.448C140.301 174.216 140.429 175.539 140.856 177.416L145.208 195.72C145.379 196.317 145.635 196.616 145.976 196.616C146.403 196.616 146.701 196.317 146.872 195.72L151.48 180.104C152.419 176.861 152.76 174.728 152.504 173.704C152.333 172.68 151.864 172.125 151.096 172.04L149.688 171.784C148.408 171.528 147.768 171.016 147.768 170.248C147.768 169.309 148.365 168.84 149.56 168.84H161.72C163.171 168.84 163.896 169.309 163.896 170.248C163.896 171.101 163.171 171.613 161.72 171.784L160.312 171.912C159.203 171.997 158.264 172.68 157.496 173.96C156.813 175.24 156.045 177.331 155.192 180.232L150.328 197C149.389 200.157 148.877 203.144 148.792 205.96C148.792 208.691 149.176 211.72 149.944 215.048L155.704 239.112C155.875 239.709 156.131 240.008 156.472 240.008C156.899 240.008 157.155 239.709 157.24 239.112L171.96 180.104C173.155 175.155 172.387 172.467 169.656 172.04L168.248 171.784C166.968 171.528 166.328 170.973 166.328 170.12C166.328 169.267 166.925 168.84 168.12 168.84H182.456C183.907 168.84 184.632 169.309 184.632 170.248C184.632 171.101 183.907 171.613 182.456 171.784L181.048 171.912C179.939 171.997 178.957 172.68 178.104 173.96C177.336 175.155 176.611 177.245 175.928 180.232L156.088 260.232C155.917 261.085 155.661 261.64 155.32 261.896C154.979 262.152 154.637 262.28 154.296 262.28ZM199.076 262.152C194.98 262.152 191.311 260.787 188.068 258.056C184.825 255.325 182.223 251.485 180.26 246.536C178.383 241.501 177.444 235.699 177.444 229.128C177.444 222.387 178.425 216.456 180.388 211.336C182.351 206.216 185.039 202.205 188.452 199.304C191.865 196.403 195.663 194.952 199.844 194.952C204.879 194.952 208.932 197.043 212.004 201.224C215.161 205.32 216.74 212.019 216.74 221.32C216.74 224.136 215.673 225.544 213.54 225.544H189.22C187.513 225.544 186.66 226.525 186.66 228.488C186.66 237.533 187.983 244.317 190.628 248.84C193.273 253.363 196.644 255.624 200.74 255.624C203.983 255.624 206.628 254.472 208.676 252.168C210.724 249.864 212.388 245.981 213.668 240.52C213.924 239.581 214.479 239.112 215.332 239.112C216.356 239.112 216.74 239.965 216.484 241.672C215.119 249.267 212.943 254.6 209.956 257.672C206.969 260.659 203.343 262.152 199.076 262.152ZM188.836 222.344H201.764C205.86 222.344 207.908 220.211 207.908 215.944C207.908 210.397 207.225 206.045 205.86 202.888C204.495 199.731 202.447 198.152 199.716 198.152C196.388 198.152 193.572 200.072 191.268 203.912C189.049 207.752 187.599 213.213 186.916 220.296C186.745 221.661 187.385 222.344 188.836 222.344ZM245.59 261C244.31 261 243.67 260.531 243.67 259.592C243.67 258.824 244.225 258.312 245.334 258.056L246.87 257.8C248.662 257.459 249.814 256.947 250.326 256.264C250.923 255.496 251.222 254.216 251.222 252.424V209.416C251.222 207.88 250.966 206.856 250.454 206.344C250.027 205.747 249.217 205.363 248.022 205.192L245.334 204.808C244.225 204.723 243.67 204.253 243.67 203.4C243.67 202.717 244.353 202.248 245.718 201.992C248.363 201.565 250.369 200.883 251.734 199.944C253.185 199.005 254.678 197.853 256.214 196.488C256.982 195.72 257.622 195.336 258.134 195.336C258.902 195.336 259.286 195.848 259.286 196.872V202.632C259.286 203.229 259.542 203.699 260.054 204.04C260.566 204.296 261.121 204.125 261.718 203.528C265.217 200.2 268.246 197.939 270.806 196.744C273.451 195.549 276.097 194.952 278.742 194.952C281.217 194.952 283.393 195.635 285.27 197C287.233 198.28 288.683 200.243 289.622 202.888C289.878 203.571 290.305 203.997 290.902 204.168C291.585 204.253 292.225 203.997 292.822 203.4C296.321 200.157 299.35 197.939 301.91 196.744C304.47 195.549 307.073 194.952 309.718 194.952C313.302 194.952 316.203 196.317 318.422 199.048C320.726 201.693 321.878 205.619 321.878 210.824V252.424C321.878 254.216 322.134 255.496 322.646 256.264C323.243 256.947 324.438 257.416 326.23 257.672L329.046 258.056C329.985 258.227 330.454 258.739 330.454 259.592C330.454 260.531 329.942 261 328.918 261H307.03C305.835 261 305.238 260.531 305.238 259.592C305.238 258.739 305.707 258.227 306.646 258.056L308.438 257.8C310.401 257.544 311.681 257.032 312.278 256.264C312.875 255.496 313.174 254.216 313.174 252.424V212.232C313.174 208.051 312.406 205.107 310.87 203.4C309.419 201.693 307.414 200.84 304.854 200.84C302.294 200.84 299.947 201.651 297.814 203.272C295.766 204.808 294.102 206.899 292.822 209.544C291.542 212.104 290.902 214.963 290.902 218.12V252.424C290.902 254.216 291.201 255.496 291.798 256.264C292.395 256.947 293.633 257.416 295.51 257.672L298.326 258.056C299.265 258.227 299.734 258.739 299.734 259.592C299.734 260.531 299.222 261 298.198 261H276.438C275.243 261 274.646 260.531 274.646 259.592C274.646 258.739 275.115 258.227 276.054 258.056L277.846 257.8C279.638 257.544 280.79 257.032 281.302 256.264C281.899 255.496 282.198 254.216 282.198 252.424V212.232C282.198 208.051 281.43 205.107 279.894 203.4C278.443 201.693 276.438 200.84 273.878 200.84C271.318 200.84 268.971 201.651 266.838 203.272C264.79 204.808 263.126 206.899 261.846 209.544C260.566 212.104 259.926 214.963 259.926 218.12V252.424C259.926 254.216 260.182 255.496 260.694 256.264C261.291 257.032 262.486 257.501 264.278 257.672L267.734 258.056C268.673 258.227 269.142 258.696 269.142 259.464C269.142 260.488 268.502 261 267.222 261H245.59ZM346.467 183.56C344.675 183.56 343.139 182.92 341.859 181.64C340.664 180.36 340.067 178.739 340.067 176.776C340.067 174.813 340.664 173.235 341.859 172.04C343.139 170.76 344.675 170.12 346.467 170.12C348.259 170.12 349.752 170.76 350.947 172.04C352.142 173.235 352.739 174.813 352.739 176.776C352.739 178.739 352.142 180.36 350.947 181.64C349.752 182.92 348.259 183.56 346.467 183.56ZM335.715 261C334.435 261 333.795 260.531 333.795 259.592C333.795 258.824 334.35 258.312 335.459 258.056L336.995 257.8C339.128 257.459 340.494 256.947 341.091 256.264C341.688 255.496 341.987 254.216 341.987 252.424V209.416C341.987 207.88 341.731 206.856 341.219 206.344C340.792 205.747 339.982 205.363 338.787 205.192L336.099 204.808C334.99 204.723 334.435 204.253 334.435 203.4C334.435 202.717 335.118 202.248 336.483 201.992C339.128 201.565 341.262 200.883 342.883 199.944C344.504 199.005 346.083 197.853 347.619 196.488C348.387 195.72 349.027 195.336 349.539 195.336C350.307 195.336 350.691 195.848 350.691 196.872V252.424C350.691 254.216 350.947 255.496 351.459 256.264C351.971 257.032 352.952 257.501 354.403 257.672L357.603 258.056C358.542 258.227 359.011 258.696 359.011 259.464C359.011 260.488 358.371 261 357.091 261H335.715ZM377.143 262.152C375.18 262.152 373.09 261.896 370.871 261.384C368.652 260.957 366.86 260.403 365.495 259.72C364.727 259.293 364.343 258.568 364.343 257.544L363.959 243.208C363.959 241.757 364.514 241.032 365.623 241.032C366.562 241.032 367.202 241.715 367.543 243.08C368.994 249.139 370.743 253.277 372.791 255.496C374.924 257.715 377.484 258.824 380.471 258.824C382.946 258.824 384.994 257.885 386.615 256.008C388.236 254.045 389.047 251.357 389.047 247.944C389.047 244.531 388.108 241.501 386.231 238.856C384.354 236.211 381.196 233.309 376.759 230.152C372.322 227.165 369.079 224.179 367.031 221.192C364.983 218.12 363.959 214.792 363.959 211.208C363.959 206.344 365.666 202.419 369.079 199.432C372.492 196.445 377.015 194.952 382.647 194.952C384.354 194.952 386.018 195.165 387.639 195.592C389.26 195.933 390.711 196.531 391.991 197.384C392.759 197.896 393.143 198.579 393.143 199.432L393.399 213.512C393.399 214.792 392.887 215.432 391.863 215.432C391.266 215.432 390.839 215.261 390.583 214.92C390.327 214.493 390.114 213.981 389.943 213.384C388.236 207.837 386.53 203.997 384.823 201.864C383.116 199.645 381.026 198.536 378.551 198.536C376.332 198.536 374.498 199.304 373.047 200.84C371.596 202.376 370.871 204.296 370.871 206.6C370.871 209.587 371.767 212.189 373.559 214.408C375.351 216.627 378.594 219.357 383.287 222.6C387.554 225.672 390.754 229 392.887 232.584C395.106 236.083 396.215 239.923 396.215 244.104C396.215 249.565 394.466 253.96 390.967 257.288C387.468 260.531 382.86 262.152 377.143 262.152ZM416.518 262.152C414.555 262.152 412.465 261.896 410.246 261.384C408.027 260.957 406.235 260.403 404.87 259.72C404.102 259.293 403.718 258.568 403.718 257.544L403.334 243.208C403.334 241.757 403.889 241.032 404.998 241.032C405.937 241.032 406.577 241.715 406.918 243.08C408.369 249.139 410.118 253.277 412.166 255.496C414.299 257.715 416.859 258.824 419.846 258.824C422.321 258.824 424.369 257.885 425.99 256.008C427.611 254.045 428.422 251.357 428.422 247.944C428.422 244.531 427.483 241.501 425.606 238.856C423.729 236.211 420.571 233.309 416.134 230.152C411.697 227.165 408.454 224.179 406.406 221.192C404.358 218.12 403.334 214.792 403.334 211.208C403.334 206.344 405.041 202.419 408.454 199.432C411.867 196.445 416.39 194.952 422.022 194.952C423.729 194.952 425.393 195.165 427.014 195.592C428.635 195.933 430.086 196.531 431.366 197.384C432.134 197.896 432.518 198.579 432.518 199.432L432.774 213.512C432.774 214.792 432.262 215.432 431.238 215.432C430.641 215.432 430.214 215.261 429.958 214.92C429.702 214.493 429.489 213.981 429.318 213.384C427.611 207.837 425.905 203.997 424.198 201.864C422.491 199.645 420.401 198.536 417.926 198.536C415.707 198.536 413.873 199.304 412.422 200.84C410.971 202.376 410.246 204.296 410.246 206.6C410.246 209.587 411.142 212.189 412.934 214.408C414.726 216.627 417.969 219.357 422.662 222.6C426.929 225.672 430.129 229 432.262 232.584C434.481 236.083 435.59 239.923 435.59 244.104C435.59 249.565 433.841 253.96 430.342 257.288C426.843 260.531 422.235 262.152 416.518 262.152ZM463.701 262.152C459.605 262.152 455.936 260.787 452.693 258.056C449.45 255.325 446.848 251.485 444.885 246.536C443.008 241.501 442.069 235.699 442.069 229.128C442.069 222.387 443.05 216.456 445.013 211.336C446.976 206.216 449.664 202.205 453.077 199.304C456.49 196.403 460.288 194.952 464.469 194.952C469.504 194.952 473.557 197.043 476.629 201.224C479.786 205.32 481.365 212.019 481.365 221.32C481.365 224.136 480.298 225.544 478.165 225.544H453.845C452.138 225.544 451.285 226.525 451.285 228.488C451.285 237.533 452.608 244.317 455.253 248.84C457.898 253.363 461.269 255.624 465.365 255.624C468.608 255.624 471.253 254.472 473.301 252.168C475.349 249.864 477.013 245.981 478.293 240.52C478.549 239.581 479.104 239.112 479.957 239.112C480.981 239.112 481.365 239.965 481.109 241.672C479.744 249.267 477.568 254.6 474.581 257.672C471.594 260.659 467.968 262.152 463.701 262.152ZM453.461 222.344H466.389C470.485 222.344 472.533 220.211 472.533 215.944C472.533 210.397 471.85 206.045 470.485 202.888C469.12 199.731 467.072 198.152 464.341 198.152C461.013 198.152 458.197 200.072 455.893 203.912C453.674 207.752 452.224 213.213 451.541 220.296C451.37 221.661 452.01 222.344 453.461 222.344ZM507.793 262.152C504.038 262.152 500.668 260.872 497.681 258.312C494.78 255.667 492.518 252.04 490.897 247.432C489.276 242.739 488.465 237.32 488.465 231.176C488.465 224.008 489.574 217.736 491.793 212.36C494.012 206.899 497.084 202.632 501.009 199.56C504.934 196.488 509.372 194.952 514.321 194.952C515.516 194.952 516.71 195.08 517.905 195.336C519.1 195.507 520.252 195.848 521.361 196.36C522.726 197.043 523.409 196.744 523.409 195.464V179.08C523.409 177.544 523.153 176.477 522.641 175.88C522.214 175.283 521.404 174.941 520.209 174.856L516.881 174.472C515.942 174.301 515.473 173.789 515.473 172.936C515.473 172.083 515.942 171.571 516.881 171.4C519.612 170.888 521.788 170.291 523.409 169.608C525.116 168.925 526.524 168.243 527.633 167.56C528.998 166.707 530.022 166.28 530.705 166.28C531.644 166.28 532.113 166.963 532.113 168.328V248.84C532.113 252.424 533.009 254.216 534.801 254.216C535.91 254.216 536.934 253.491 537.873 252.04C538.812 250.504 539.281 247.944 539.281 244.36C539.281 242.995 539.836 242.312 540.945 242.312C541.969 242.312 542.481 243.037 542.481 244.488C542.481 250.717 541.414 255.24 539.281 258.056C537.148 260.787 534.716 262.152 531.985 262.152C529.51 262.152 527.633 261.341 526.353 259.72C525.073 258.013 524.22 256.008 523.793 253.704C523.708 253.021 523.409 252.68 522.897 252.68C522.385 252.595 521.916 252.893 521.489 253.576C519.1 256.904 516.924 259.165 514.961 260.36C512.998 261.555 510.609 262.152 507.793 262.152ZM510.609 256.264C512.828 256.264 514.876 255.539 516.753 254.088C518.716 252.552 520.294 250.504 521.489 247.944C522.769 245.384 523.409 242.525 523.409 239.368V210.568C523.409 206.728 522.513 203.699 520.721 201.48C519.014 199.261 516.753 198.152 513.937 198.152C509.158 198.152 505.276 200.968 502.289 206.6C499.388 212.147 497.937 219.741 497.937 229.384C497.937 238.173 499.046 244.872 501.265 249.48C503.569 254.003 506.684 256.264 510.609 256.264ZM575.499 287.24C573.195 287.24 571.36 286.429 569.995 284.808C568.63 283.272 567.947 281.48 567.947 279.432C567.947 277.811 568.416 276.445 569.355 275.336C570.294 274.227 571.574 273.672 573.195 273.672C574.56 273.672 575.542 273.971 576.139 274.568C576.736 275.165 577.163 275.848 577.419 276.616C577.675 277.384 577.931 278.067 578.187 278.664C578.443 279.261 578.955 279.56 579.723 279.56C580.662 279.56 581.515 278.877 582.283 277.512C583.051 276.232 584.118 273.459 585.483 269.192C586.336 266.632 586.848 264.413 587.019 262.536C587.275 260.659 587.232 258.653 586.891 256.52C586.635 254.387 585.995 251.784 584.971 248.712L571.019 204.296C570.422 202.248 569.824 200.925 569.227 200.328C568.715 199.731 567.862 199.304 566.667 199.048L564.747 198.664C563.638 198.408 563.083 197.853 563.083 197C563.083 196.147 563.68 195.72 564.875 195.72H585.995C587.19 195.72 587.787 196.147 587.787 197C587.787 197.939 587.232 198.493 586.123 198.664L584.075 198.92C582.027 199.176 580.704 199.688 580.107 200.456C579.595 201.139 579.638 202.419 580.235 204.296L591.499 241.8C591.755 242.653 592.139 243.08 592.651 243.08C593.248 243.08 593.675 242.653 593.931 241.8L604.811 206.6C605.494 204.296 605.664 202.589 605.323 201.48C605.067 200.285 603.872 199.517 601.739 199.176L599.051 198.664C597.942 198.408 597.387 197.853 597.387 197C597.387 196.147 597.984 195.72 599.179 195.72H615.435C616.63 195.72 617.227 196.189 617.227 197.128C617.227 197.981 616.715 198.579 615.691 198.92L614.539 199.304C613.259 199.731 612.192 200.499 611.339 201.608C610.486 202.717 609.59 204.637 608.651 207.368L589.579 266.888C587.702 272.861 585.995 277.299 584.459 280.2C583.008 283.101 581.6 284.979 580.235 285.832C578.87 286.771 577.291 287.24 575.499 287.24ZM640.234 262.152C635.882 262.152 631.957 260.701 628.458 257.8C625.045 254.813 622.314 250.76 620.266 245.64C618.218 240.52 617.194 234.803 617.194 228.488C617.194 222.173 618.218 216.499 620.266 211.464C622.314 206.429 625.087 202.419 628.586 199.432C632.085 196.445 635.967 194.952 640.234 194.952C644.586 194.952 648.469 196.445 651.882 199.432C655.381 202.419 658.154 206.429 660.202 211.464C662.25 216.499 663.274 222.173 663.274 228.488C663.274 234.803 662.25 240.52 660.202 245.64C658.239 250.76 655.509 254.813 652.01 257.8C648.511 260.701 644.586 262.152 640.234 262.152ZM640.234 258.952C649.109 258.952 653.546 248.797 653.546 228.488C653.546 208.264 649.109 198.152 640.234 198.152C631.359 198.152 626.922 208.264 626.922 228.488C626.922 248.797 631.359 258.952 640.234 258.952ZM688.388 262.152C686.255 262.152 684.207 261.683 682.244 260.744C680.281 259.805 678.66 258.312 677.38 256.264C676.1 254.216 675.46 251.485 675.46 248.072V203.528C675.46 201.992 675.204 200.925 674.692 200.328C674.265 199.731 673.455 199.389 672.26 199.304L670.084 199.048C668.633 198.877 667.908 198.323 667.908 197.384C667.908 196.275 668.719 195.72 670.34 195.72H682.244C683.524 195.72 684.164 196.36 684.164 197.64V245.384C684.164 249.309 684.889 252.125 686.34 253.832C687.876 255.453 689.967 256.264 692.612 256.264C695.257 256.264 697.604 255.539 699.652 254.088C701.7 252.552 703.321 250.547 704.516 248.072C705.796 245.512 706.436 242.739 706.436 239.752V203.528C706.436 201.992 706.18 200.925 705.668 200.328C705.241 199.731 704.431 199.389 703.236 199.304L701.06 199.048C699.609 198.877 698.884 198.323 698.884 197.384C698.884 196.275 699.695 195.72 701.316 195.72H713.22C714.5 195.72 715.14 196.36 715.14 197.64V247.304C715.14 248.84 715.353 249.907 715.78 250.504C716.292 251.016 717.145 251.357 718.34 251.528L721.028 251.912C722.137 251.997 722.692 252.424 722.692 253.192C722.692 253.96 722.009 254.472 720.644 254.728C717.999 255.069 715.865 255.752 714.244 256.776C712.708 257.8 711.343 259.037 710.148 260.488C709.38 261.256 708.74 261.64 708.228 261.64C707.46 261.64 707.076 261.128 707.076 260.104V254.216C707.076 253.533 706.82 253.149 706.308 253.064C705.881 252.893 705.412 253.064 704.9 253.576C701.743 256.733 698.927 258.952 696.452 260.232C694.063 261.512 691.375 262.152 688.388 262.152Z" fill="#6A6A6A"/>
</svg>
