<svg width="1007" height="640" viewBox="0 0 1007 640" fill="none" xmlns="http://www.w3.org/2000/svg">
<path d="M73.5283 563.304C60.8989 563.304 49.8056 559.379 40.2483 551.528C30.8616 543.677 23.5229 532.669 18.2323 518.504C13.1123 504.168 10.5523 487.272 10.5523 467.816C10.5523 449.043 13.3683 432.659 19.0003 418.664C24.8029 404.499 32.4829 393.576 42.0403 385.896C51.7683 378.045 62.5203 374.12 74.2963 374.12C81.2936 374.12 87.4376 374.803 92.7283 376.168C98.0189 377.363 102.712 378.984 106.808 381.032C108.856 382.227 109.88 384.019 109.88 386.408L110.648 425.32C110.648 428.221 109.624 429.672 107.576 429.672C105.699 429.672 104.504 428.563 103.992 426.344L101.432 416.872C97.8483 403.56 93.6669 394.344 88.8883 389.224C84.2803 384.104 78.7336 381.544 72.2483 381.544C60.3016 381.544 50.3176 388.968 42.2963 403.816C34.4456 418.493 30.5203 439.827 30.5203 467.816C30.5203 486.931 32.4829 503.059 36.4083 516.2C40.5043 529.341 45.7096 539.24 52.0243 545.896C58.5096 552.552 65.3363 555.88 72.5043 555.88C80.1843 555.88 86.3283 553.491 90.9363 548.712C95.7149 543.933 99.7256 534.717 102.968 521.064L106.04 508.52C106.552 505.96 107.918 504.851 110.136 505.192C112.014 505.533 112.952 506.984 112.952 509.544L111.928 551.016C111.928 553.405 110.819 555.197 108.6 556.392C104.504 558.44 99.6403 560.061 94.0083 561.256C88.5469 562.621 81.7203 563.304 73.5283 563.304ZM119.544 561C116.984 561 115.704 560.147 115.704 558.44C115.704 556.733 116.899 555.624 119.288 555.112L123.128 554.344C126.542 553.661 129.102 552.04 130.808 549.48C132.515 546.749 133.966 542.995 135.16 538.216L174.84 378.216C175.182 376.509 175.694 375.4 176.376 374.888C177.23 374.376 177.998 374.12 178.68 374.12C179.534 374.12 180.302 374.376 180.984 374.888C181.838 375.4 182.435 376.509 182.776 378.216L223.224 540.52C224.419 545.299 225.784 548.627 227.32 550.504C228.856 552.381 231.246 553.661 234.488 554.344L238.328 555.112C240.718 555.624 241.912 556.733 241.912 558.44C241.912 560.147 240.632 561 238.072 561H194.296C191.907 561 190.712 560.061 190.712 558.184C190.712 556.307 192.163 555.283 195.064 555.112L199.928 554.6C202.83 554.259 204.622 553.32 205.304 551.784C206.158 550.248 206.158 547.603 205.304 543.848L195.576 504.168C194.552 499.731 191.736 497.512 187.128 497.512H160.248C155.811 497.512 152.995 499.731 151.8 504.168L143.096 538.472C140.536 548.2 143.096 553.576 150.776 554.6L154.616 555.112C157.518 555.624 158.968 556.648 158.968 558.184C158.968 560.061 157.774 561 155.384 561H119.544ZM159.48 489.832H187.64C190.371 489.832 191.48 488.381 190.968 485.48L174.584 416.872H173.304L156.152 485.48C155.64 488.381 156.75 489.832 159.48 489.832ZM350.012 563.304C335.164 563.304 325.692 553.576 321.596 534.12L315.708 505.704C313.831 496.488 311.698 489.491 309.308 484.712C307.09 479.933 303.932 476.691 299.836 474.984C295.911 473.277 290.45 472.424 283.452 472.424C281.063 472.424 279.186 473.107 277.82 474.472C276.455 475.667 275.772 477.203 275.772 479.08V543.08C275.772 546.664 276.455 549.139 277.82 550.504C279.186 551.699 282.258 552.723 287.036 553.576L296.508 555.112C298.386 555.453 299.324 556.392 299.324 557.928C299.324 559.976 298.044 561 295.484 561H243.516C240.956 561 239.676 560.061 239.676 558.184C239.676 556.648 240.786 555.624 243.004 555.112L248.892 554.088C252.476 553.405 254.78 552.467 255.804 551.272C256.999 550.077 257.596 547.688 257.596 544.104V393.576C257.596 389.992 256.999 387.603 255.804 386.408C254.78 385.213 252.476 384.275 248.892 383.592L243.004 382.568C240.786 382.056 239.676 381.032 239.676 379.496C239.676 377.619 240.956 376.68 243.516 376.68H295.484C305.554 376.68 314.514 378.643 322.364 382.568C330.215 386.493 336.359 391.955 340.796 398.952C345.234 405.779 347.452 413.715 347.452 422.76C347.452 433.512 344.21 443.24 337.724 451.944C331.239 460.477 323.047 466.536 313.148 470.12C311.954 470.461 311.271 471.059 311.1 471.912C311.1 472.595 311.698 473.192 312.892 473.704C318.354 476.264 322.62 479.848 325.692 484.456C328.935 489.064 331.41 495.208 333.116 502.888L338.748 529C340.626 537.875 342.844 544.189 345.404 547.944C347.964 551.699 351.207 553.576 355.132 553.576C356.498 553.576 357.692 553.405 358.716 553.064C359.911 552.552 361.362 551.699 363.068 550.504C364.434 549.651 365.714 549.48 366.908 549.992C368.103 550.333 368.7 551.187 368.7 552.552C368.7 555.453 366.823 558.013 363.068 560.232C359.314 562.28 354.962 563.304 350.012 563.304ZM292.924 466.024C304.53 466.024 313.319 462.184 319.292 454.504C325.266 446.653 328.252 436.243 328.252 423.272C328.252 410.643 324.754 400.829 317.756 393.832C310.93 386.664 301.458 383.08 289.34 383.08C280.295 383.08 275.772 386.493 275.772 393.32V451.944C275.772 461.331 281.49 466.024 292.924 466.024ZM371.766 561C369.206 561 367.926 560.061 367.926 558.184C367.926 556.648 369.036 555.624 371.254 555.112L377.142 554.088C382.945 553.064 385.846 549.736 385.846 544.104V393.576C385.846 389.992 385.249 387.603 384.054 386.408C383.03 385.213 380.726 384.275 377.142 383.592L371.254 382.568C369.036 382.056 367.926 381.032 367.926 379.496C367.926 377.619 369.206 376.68 371.766 376.68H423.478C436.79 376.68 448.31 380.605 458.038 388.456C467.766 396.136 475.276 406.973 480.566 420.968C485.857 434.963 488.502 451.176 488.502 469.608C488.502 488.211 485.686 504.339 480.054 517.992C474.593 531.645 466.828 542.227 456.758 549.736C446.689 557.245 434.742 561 420.918 561H371.766ZM421.942 554.344C437.132 554.344 448.652 547.091 456.502 532.584C464.524 518.077 468.534 497.085 468.534 469.608C468.534 442.301 464.694 421.139 457.014 406.12C449.505 390.931 438.326 383.336 423.478 383.336C410.508 383.336 404.022 389.565 404.022 402.024V535.656C404.022 542.483 405.388 547.347 408.118 550.248C411.02 552.979 415.628 554.344 421.942 554.344ZM637.544 563.56C636.862 563.56 636.179 563.304 635.496 562.792C634.984 562.28 634.728 561.171 634.728 559.464L633.448 483.176C633.448 481.299 632.936 480.275 631.912 480.104C630.888 479.763 629.95 480.445 629.096 482.152L589.672 559.464C588.819 561.171 588.051 562.28 587.368 562.792C586.686 563.304 586.003 563.56 585.32 563.56C584.638 563.56 583.955 563.304 583.272 562.792C582.59 562.28 582.248 561.171 582.248 559.464L579.432 397.16C579.262 392.381 578.664 389.053 577.64 387.176C576.616 385.299 574.483 384.019 571.24 383.336L567.912 382.568C565.864 382.056 564.84 381.032 564.84 379.496C564.84 378.472 565.267 377.789 566.12 377.448C566.974 376.936 567.998 376.68 569.192 376.68H610.152C612.371 376.68 613.48 377.533 613.48 379.24C613.48 380.776 611.944 381.885 608.872 382.568L605.8 383.08C602.899 383.592 600.595 384.616 598.888 386.152C597.352 387.517 596.584 390.077 596.584 393.832L598.12 516.456C598.12 517.992 598.632 518.845 599.656 519.016C600.68 519.187 601.534 518.504 602.216 516.968L623.208 476.776C626.622 470.12 629.096 463.805 630.632 457.832C632.168 451.859 632.851 445.032 632.68 437.352L631.912 397.16C631.742 392.381 631.315 388.968 630.632 386.92C630.12 384.872 628.926 383.677 627.048 383.336L623.72 382.568C621.502 382.056 620.392 381.117 620.392 379.752C620.392 377.704 621.928 376.68 625 376.68H659.304C661.523 376.68 662.632 377.533 662.632 379.24C662.632 380.947 661.096 382.056 658.024 382.568L654.952 383.08C652.734 383.421 651.198 384.36 650.344 385.896C649.662 387.432 649.32 390.077 649.32 393.832L649.832 428.392C649.832 430.099 650.344 431.123 651.368 431.464C652.392 431.635 653.246 430.952 653.928 429.416L669.8 399.208C673.214 392.723 674.92 388.456 674.92 386.408C674.92 384.36 674.152 383.251 672.616 383.08L670.056 382.568C667.838 382.056 666.728 381.032 666.728 379.496C666.728 377.619 668.179 376.68 671.08 376.68H695.144C697.875 376.68 699.24 377.533 699.24 379.24C699.24 381.117 697.534 382.227 694.12 382.568L691.304 382.824C688.915 382.995 686.696 384.36 684.648 386.92C682.6 389.48 680.126 393.661 677.224 399.464L659.56 433.512C656.147 440.339 653.672 446.739 652.136 452.712C650.6 458.515 649.918 465.256 650.088 472.936L650.6 515.432C650.6 516.968 651.112 517.821 652.136 517.992C653.16 517.992 654.014 517.309 654.696 515.944L710.76 399.208C713.15 394.259 714.259 390.504 714.088 387.944C714.088 385.384 712.638 383.763 709.736 383.08L707.176 382.568C704.958 382.056 703.848 381.032 703.848 379.496C703.848 377.619 705.299 376.68 708.2 376.68H737.128C739.518 376.68 740.712 377.619 740.712 379.496C740.712 381.373 739.006 382.397 735.592 382.568L732.776 382.824C730.387 382.995 728.254 384.104 726.376 386.152C724.67 388.029 722.11 392.467 718.696 399.464L641.896 559.464C641.214 561.171 640.446 562.28 639.592 562.792C638.91 563.304 638.227 563.56 637.544 563.56ZM701.43 561C699.041 561 697.846 560.147 697.846 558.44C697.846 556.563 699.553 555.368 702.966 554.856L708.086 554.088C711.841 553.576 714.401 552.723 715.766 551.528C717.302 550.163 718.412 547.688 719.094 544.104L753.91 393.576C754.764 389.992 754.764 387.603 753.91 386.408C753.057 385.213 750.924 384.275 747.51 383.592L742.39 382.568C740.172 382.056 739.062 381.117 739.062 379.752C739.062 377.704 740.598 376.68 743.67 376.68H789.238C791.628 376.68 792.822 377.533 792.822 379.24C792.822 381.117 791.116 382.312 787.702 382.824L782.582 383.592C778.828 384.104 776.268 385.043 774.902 386.408C773.537 387.603 772.428 389.992 771.574 393.576L736.758 544.104C736.076 547.688 736.076 550.077 736.758 551.272C737.612 552.467 739.745 553.405 743.158 554.088L748.278 555.112C750.497 555.624 751.606 556.563 751.606 557.928C751.606 559.976 750.07 561 746.998 561H701.43ZM815.35 563.304C810.572 563.304 805.452 562.792 799.99 561.768C794.7 560.744 789.665 559.379 784.886 557.672C780.278 555.795 776.609 553.661 773.878 551.272C773.025 550.419 772.428 549.565 772.086 548.712C771.916 547.859 772.001 546.579 772.342 544.872L779.51 504.68C780.022 501.608 781.388 500.072 783.606 500.072C785.654 500.072 786.678 501.779 786.678 505.192L786.934 515.176C787.276 529.512 789.75 539.837 794.358 546.152C798.966 552.467 806.476 555.624 816.886 555.624C826.444 555.624 834.38 552.211 840.694 545.384C847.009 538.387 850.166 529.085 850.166 517.48C850.166 509.971 848.118 502.12 844.022 493.928C839.926 485.736 834.209 477.544 826.87 469.352C818.166 459.624 811.681 450.749 807.414 442.728C803.318 434.707 801.27 426.259 801.27 417.384C801.27 410.387 802.977 403.645 806.39 397.16C809.804 390.504 814.924 385.043 821.75 380.776C828.748 376.339 837.622 374.12 848.374 374.12C863.222 374.12 874.572 377.448 882.422 384.104C884.812 385.981 885.665 388.797 884.982 392.552L877.814 429.928C877.302 432.488 876.108 433.768 874.23 433.768C872.353 433.768 871.244 432.317 870.902 429.416L870.646 424.04C869.964 410.216 868.001 399.72 864.758 392.552C861.686 385.213 855.457 381.544 846.07 381.544C839.244 381.544 833.782 383.08 829.686 386.152C825.59 389.224 822.604 393.064 820.726 397.672C818.849 402.109 817.91 406.547 817.91 410.984C817.91 415.933 818.593 420.712 819.958 425.32C821.324 429.757 823.628 434.536 826.87 439.656C830.284 444.605 834.892 450.664 840.694 457.832C848.886 467.56 855.286 476.861 859.894 485.736C864.502 494.611 866.806 503.229 866.806 511.592C866.806 521.661 864.502 530.621 859.894 538.472C855.457 546.152 849.398 552.211 841.718 556.648C834.038 561.085 825.249 563.304 815.35 563.304ZM872.43 561C870.041 561 868.846 560.147 868.846 558.44C868.846 556.563 870.553 555.368 873.966 554.856L879.086 554.088C882.841 553.576 885.401 552.723 886.766 551.528C888.302 550.163 889.412 547.688 890.094 544.104L924.91 393.576C925.764 389.992 925.764 387.603 924.91 386.408C924.057 385.213 921.924 384.275 918.51 383.592L913.39 382.568C911.172 382.056 910.062 381.117 910.062 379.752C910.062 377.704 911.598 376.68 914.67 376.68H1000.17C1004.61 376.68 1006.4 378.643 1005.55 382.568L997.614 425.064C997.102 427.965 995.737 429.416 993.518 429.416C991.129 429.416 990.105 428.307 990.446 426.088L991.214 417.128C992.068 408.424 991.3 401.597 988.91 396.648C986.692 391.699 983.278 388.2 978.67 386.152C974.233 384.104 969.028 383.08 963.054 383.08C956.228 383.08 951.278 384.104 948.206 386.152C945.134 388.029 943.001 391.443 941.806 396.392L927.726 458.088C927.214 460.477 928.153 461.672 930.542 461.672H943.598C951.108 461.672 956.569 457.661 959.982 449.64L965.614 436.84C966.468 434.621 967.833 433.512 969.71 433.512C970.734 433.512 971.502 433.939 972.014 434.792C972.697 435.475 972.868 436.499 972.526 437.864L959.214 495.464C958.361 498.365 956.91 499.816 954.862 499.816C952.814 499.816 951.79 498.707 951.79 496.488L952.046 483.944C952.217 477.971 951.449 474.045 949.742 472.168C948.206 470.291 945.476 469.352 941.55 469.352H928.75C926.19 469.352 924.654 470.547 924.142 472.936L909.294 537.192C907.929 543.336 908.526 547.773 911.086 550.504C913.646 553.235 919.108 554.6 927.47 554.6C932.59 554.6 937.625 553.832 942.574 552.296C947.694 550.589 952.473 547.432 956.91 542.824C961.518 538.216 965.7 531.56 969.454 522.856L975.598 508.52C976.452 506.301 977.817 505.192 979.694 505.192C982.254 505.192 983.108 506.643 982.254 509.544L969.198 555.112C968.174 559.037 965.614 561 961.518 561H872.43Z" fill="#6A6A6A"/>
<path d="M451.36 628C450.96 628 450.76 627.853 450.76 627.56C450.76 627.32 450.933 627.16 451.28 627.08L452.2 626.92C453.107 626.76 453.56 626.24 453.56 625.36V601.84C453.56 601.28 453.467 600.907 453.28 600.72C453.12 600.533 452.76 600.387 452.2 600.28L451.28 600.12C450.933 600.04 450.76 599.88 450.76 599.64C450.76 599.347 450.96 599.2 451.36 599.2H459.44C461.52 599.2 463.32 599.813 464.84 601.04C466.36 602.24 467.533 603.933 468.36 606.12C469.187 608.307 469.6 610.84 469.6 613.72C469.6 616.627 469.16 619.147 468.28 621.28C467.427 623.413 466.213 625.067 464.64 626.24C463.067 627.413 461.2 628 459.04 628H451.36ZM459.2 626.96C461.573 626.96 463.373 625.827 464.6 623.56C465.853 621.293 466.48 618.013 466.48 613.72C466.48 609.453 465.88 606.147 464.68 603.8C463.507 601.427 461.76 600.24 459.44 600.24C457.413 600.24 456.4 601.213 456.4 603.16V624.04C456.4 625.107 456.613 625.867 457.04 626.32C457.493 626.747 458.213 626.96 459.2 626.96ZM472.18 628C471.78 628 471.58 627.853 471.58 627.56C471.58 627.32 471.754 627.16 472.1 627.08L473.02 626.92C473.58 626.813 473.94 626.667 474.1 626.48C474.287 626.293 474.38 625.92 474.38 625.36V601.84C474.38 601.28 474.287 600.907 474.1 600.72C473.94 600.533 473.58 600.387 473.02 600.28L472.1 600.12C471.754 600.04 471.58 599.88 471.58 599.64C471.58 599.347 471.78 599.2 472.18 599.2H479.42C479.82 599.2 480.02 599.347 480.02 599.64C480.02 599.88 479.847 600.04 479.5 600.12L478.58 600.28C478.02 600.387 477.647 600.533 477.46 600.72C477.3 600.907 477.22 601.28 477.22 601.84V625.36C477.22 625.92 477.3 626.293 477.46 626.48C477.647 626.667 478.02 626.813 478.58 626.92L479.5 627.08C479.847 627.16 480.02 627.32 480.02 627.56C480.02 627.853 479.82 628 479.42 628H472.18ZM485.501 628C485.101 628 484.901 627.853 484.901 627.56C484.901 627.267 485.075 627.107 485.421 627.08L487.221 626.8C487.755 626.72 488.115 626.587 488.301 626.4C488.488 626.187 488.581 625.8 488.581 625.24V601.24C488.581 600.867 488.501 600.6 488.341 600.44C488.181 600.28 487.848 600.2 487.341 600.2C486.355 600.2 485.381 600.627 484.421 601.48C483.461 602.333 482.835 603.707 482.541 605.6L482.341 606.92C482.288 607.267 482.101 607.44 481.781 607.44C481.381 607.44 481.208 607.213 481.261 606.76L481.621 599.52C481.675 598.907 481.915 598.6 482.341 598.6C482.528 598.6 482.701 598.653 482.861 598.76C483.021 598.84 483.288 598.933 483.661 599.04C484.061 599.147 484.688 599.2 485.541 599.2H494.461C495.315 599.2 495.928 599.147 496.301 599.04C496.701 598.933 496.981 598.84 497.141 598.76C497.328 598.653 497.501 598.6 497.661 598.6C498.088 598.6 498.328 598.907 498.381 599.52L498.741 606.76C498.795 607.213 498.621 607.44 498.221 607.44C497.901 607.44 497.715 607.267 497.661 606.92L497.461 605.6C497.195 603.707 496.581 602.333 495.621 601.48C494.661 600.627 493.675 600.2 492.661 600.2C492.155 600.2 491.821 600.28 491.661 600.44C491.501 600.6 491.421 600.867 491.421 601.24V625.24C491.421 625.8 491.515 626.187 491.701 626.4C491.915 626.587 492.275 626.72 492.781 626.8L494.581 627.08C494.928 627.107 495.101 627.267 495.101 627.56C495.101 627.853 494.901 628 494.501 628H485.501ZM511.416 628.36C510.029 628.36 508.909 628.107 508.056 627.6C507.229 627.093 506.816 626.427 506.816 625.6C506.816 625.147 506.949 624.8 507.216 624.56C507.482 624.293 507.829 624.16 508.256 624.16C508.762 624.16 509.096 624.32 509.256 624.64C509.416 624.96 509.536 625.32 509.616 625.72C509.696 626.12 509.869 626.48 510.136 626.8C510.429 627.12 510.936 627.28 511.656 627.28C513.176 627.28 514.402 626.573 515.336 625.16C516.296 623.72 516.776 621.84 516.776 619.52C516.776 614.373 515.309 611.8 512.376 611.8C511.309 611.8 510.402 612.053 509.656 612.56C509.229 612.88 508.909 612.92 508.696 612.68C508.536 612.413 508.642 612.093 509.016 611.72L511.896 609C513.069 607.907 513.922 606.907 514.456 606C514.989 605.093 515.256 604.187 515.256 603.28C515.256 602.293 515.029 601.533 514.576 601C514.149 600.44 513.549 600.16 512.776 600.16C511.762 600.16 510.909 600.533 510.216 601.28C509.522 602.027 509.069 603.053 508.856 604.36C508.802 604.76 508.602 604.96 508.256 604.96C507.882 604.96 507.722 604.72 507.776 604.24C507.962 602.587 508.576 601.267 509.616 600.28C510.682 599.293 511.989 598.8 513.536 598.8C514.869 598.8 515.936 599.173 516.736 599.92C517.562 600.64 517.976 601.613 517.976 602.84C517.976 604.947 516.256 607.187 512.816 609.56L511.896 610.2C511.789 610.28 511.749 610.373 511.776 610.48C511.829 610.56 511.922 610.587 512.056 610.56C512.509 610.427 512.962 610.36 513.416 610.36C514.642 610.36 515.722 610.707 516.656 611.4C517.589 612.093 518.322 613.067 518.856 614.32C519.389 615.547 519.656 616.96 519.656 618.56C519.656 619.84 519.429 621.067 518.976 622.24C518.522 623.413 517.909 624.467 517.136 625.4C516.362 626.307 515.482 627.027 514.496 627.56C513.509 628.093 512.482 628.36 511.416 628.36ZM527.659 628C527.259 628 527.059 627.853 527.059 627.56C527.059 627.267 527.233 627.107 527.579 627.08L529.299 626.84C529.859 626.76 530.219 626.627 530.379 626.44C530.566 626.227 530.659 625.867 530.659 625.36V620.16C530.659 619.787 530.473 619.6 530.099 619.6H522.019C521.513 619.6 521.259 619.373 521.259 618.92C521.259 618.787 521.286 618.653 521.339 618.52C521.419 618.36 521.513 618.16 521.619 617.92L531.219 599.6C531.326 599.333 531.539 599.2 531.859 599.2H532.659C533.139 599.2 533.259 599.427 533.019 599.88L523.419 616.8C523.233 617.173 523.339 617.36 523.739 617.36H530.099C530.473 617.36 530.659 617.173 530.659 616.8V608.96C530.659 608.72 530.793 608.507 531.059 608.32L532.539 607.48C532.726 607.373 532.886 607.36 533.019 607.44C533.153 607.493 533.219 607.627 533.219 607.84V616.8C533.219 617.173 533.406 617.36 533.779 617.36H535.539C535.859 617.36 536.019 617.52 536.019 617.84V619.12C536.019 619.44 535.859 619.6 535.539 619.6H533.779C533.406 619.6 533.219 619.787 533.219 620.16V625.36C533.219 625.92 533.299 626.293 533.459 626.48C533.646 626.667 534.019 626.813 534.579 626.92L535.499 627.08C535.846 627.16 536.019 627.32 536.019 627.56C536.019 627.853 535.819 628 535.419 628H527.659ZM538.083 628C537.603 628 537.363 627.827 537.363 627.48C537.363 627.293 537.456 627.053 537.643 626.76L542.442 619.44C544.443 616.4 545.883 613.787 546.763 611.6C547.669 609.387 548.123 607.36 548.123 605.52C548.123 603.867 547.776 602.6 547.083 601.72C546.416 600.84 545.443 600.4 544.163 600.4C542.883 600.4 541.723 600.853 540.683 601.76C539.643 602.64 538.976 604.053 538.683 606C538.603 606.427 538.403 606.64 538.083 606.64C537.683 606.64 537.509 606.373 537.563 605.84C537.749 604.08 538.203 602.693 538.923 601.68C539.669 600.64 540.563 599.907 541.603 599.48C542.643 599.027 543.696 598.8 544.763 598.8C546.603 598.8 548.096 599.36 549.243 600.48C550.416 601.573 551.003 603.107 551.003 605.08C551.003 606.467 550.669 607.893 550.003 609.36C549.363 610.8 548.469 612.387 547.323 614.12C546.203 615.827 544.909 617.787 543.443 620L540.323 624.72C540.163 624.96 540.149 625.173 540.283 625.36C540.443 625.52 540.656 625.6 540.923 625.6H545.203C546.216 625.6 547.056 625.493 547.723 625.28C548.389 625.04 548.923 624.613 549.323 624C549.723 623.36 550.029 622.453 550.243 621.28L550.603 619.4C550.683 619.053 550.883 618.88 551.203 618.88C551.576 618.88 551.736 619.107 551.683 619.56L551.203 627.08C551.149 627.693 550.816 628 550.203 628H538.083Z" fill="#6C6C6C"/>
<rect width="173.853" height="254.272" rx="30" transform="matrix(0.841002 -0.541033 0.548249 0.836315 352 94.0601)" fill="#6A6A6A"/>
<path d="M397.098 97.4101C390.572 82.1807 397.664 64.6286 412.937 58.2063L518.105 13.9837C533.378 7.56135 551.05 14.7008 557.575 29.9302L633.954 208.181C640.48 223.41 633.388 240.962 618.115 247.384L512.947 291.607C497.674 298.029 480.003 290.89 473.477 275.661L397.098 97.4101Z" fill="#DEDBCC"/>
<rect width="174.254" height="253.679" rx="30" transform="matrix(0.97483 -0.222947 0.226971 0.973902 423.707 55.6443)" fill="#6A6A6A"/>
</svg>
