<svg width="857" height="702" viewBox="0 0 857 702" fill="none" xmlns="http://www.w3.org/2000/svg">
<line y1="700" x2="857.009" y2="700" stroke="#6A6A6A" stroke-opacity="0.5" stroke-width="4"/>
<rect x="456" y="41.6373" width="182" height="678" transform="rotate(-13.225 456 41.6373)" fill="#EA9944"/>
<g filter="url(#filter0_b_28_92)">
<path d="M545.279 268.83C544.899 267.21 545.881 265.796 548.227 264.587L623.652 222.989C626.438 221.414 628.164 220.087 628.831 219.01C629.528 218.057 629.858 216.665 629.821 214.833L629.723 211.897C629.716 210.19 630.335 209.189 631.581 208.896C632.827 208.603 633.656 209.329 634.066 211.073L641.184 241.352C641.594 243.096 641.176 244.115 639.93 244.408C638.56 244.73 637.559 244.111 636.929 242.55L635.852 239.647C634.776 236.744 633.589 235.051 632.291 234.567C631.119 234.054 629.25 234.493 626.684 235.885L575.766 263.438C574.608 264.104 574.117 264.812 574.293 265.559C574.498 266.431 575.267 266.908 576.601 266.989L627.998 268.318C629.053 268.332 630.079 268.223 631.076 267.988C632.102 267.879 633.132 267.505 634.165 266.867C636.951 265.292 638.615 263.981 639.157 262.933C639.854 261.98 640.184 260.587 640.148 258.755L640.049 255.82C640.042 254.112 640.662 253.112 641.908 252.819C643.154 252.526 643.982 253.252 644.392 254.996L651.51 285.274C651.92 287.019 651.502 288.038 650.256 288.331C648.886 288.653 647.886 288.033 647.255 286.472L646.179 283.569C645.102 280.667 643.929 279.036 642.661 278.676C641.518 278.288 639.634 278.665 637.01 279.808L585.807 304.469C584.62 305.011 584.114 305.656 584.29 306.403C584.495 307.276 585.264 307.752 586.598 307.833L640.589 310.13C644.187 310.336 646.738 309.999 648.241 309.12C649.897 308.336 650.609 306.328 650.375 303.095L650.2 298.995C650.193 297.287 650.812 296.287 652.058 295.994C653.304 295.701 654.132 296.426 654.542 298.171L660.035 321.534C660.445 323.278 659.965 324.312 658.594 324.634C657.348 324.927 656.3 324.384 655.45 323.006L654.494 321.456C653.432 319.733 651.929 318.377 649.987 317.387C648.045 316.398 644.949 315.811 640.698 315.627L559.432 312.248C556.793 312.21 555.269 311.32 554.859 309.575C554.507 308.08 555.504 306.728 557.85 305.519L614.232 276.879C615.514 276.183 616.053 275.399 615.848 274.527C615.797 273.75 614.98 273.35 613.397 273.328L549.808 271.316C547.17 271.278 545.66 270.45 545.279 268.83ZM683.05 339.728C682.435 337.111 682.842 334.649 684.271 332.34C685.73 330.157 687.893 328.728 690.759 328.054C693.624 327.38 696.135 327.71 698.289 329.045C700.598 330.474 702.059 332.498 702.675 335.114C703.29 337.731 702.868 340.131 701.409 342.315C700.075 344.47 697.975 345.884 695.109 346.557C692.243 347.231 689.67 346.916 687.391 345.611C685.112 344.306 683.665 342.345 683.05 339.728ZM566.282 350.613C565.842 348.744 566.308 347.648 567.678 347.326C568.8 347.062 569.738 347.696 570.493 349.228L571.394 351.383C572.624 354.381 573.841 356.199 575.043 356.837C576.369 357.445 578.341 357.442 580.957 356.827L643.757 342.063C646 341.535 647.407 340.81 647.979 339.887C648.705 339.058 648.987 337.743 648.826 335.94L648.464 331.883C648.208 330.234 648.703 329.263 649.949 328.97C650.946 328.736 651.866 329.571 652.708 331.477C654.239 335.193 655.968 338.074 657.896 340.119C659.823 342.164 662.047 344.074 664.568 345.848C665.953 346.706 666.733 347.509 666.909 348.256C667.173 349.378 666.557 350.114 665.062 350.466L583.945 369.536C581.329 370.151 579.547 370.965 578.602 371.976C577.656 372.987 577.308 374.581 577.557 376.758L578.094 381.563C578.167 382.992 577.643 383.838 576.522 384.102C575.027 384.453 574.059 383.695 573.62 381.826L566.282 350.613ZM578.821 411.501C578.148 408.635 577.804 405.494 577.79 402.079C577.651 398.693 577.846 395.886 578.374 393.658C578.733 392.39 579.661 391.58 581.156 391.228L601.957 385.746C604.075 385.248 605.325 385.809 605.706 387.429C606.028 388.8 605.251 389.969 603.374 390.936C595.026 395.134 589.583 399.109 587.046 402.861C584.539 406.738 583.798 410.857 584.823 415.218C585.673 418.831 587.747 421.499 591.044 423.222C594.467 424.916 598.67 425.177 603.654 424.005C608.638 422.834 612.74 420.423 615.958 416.774C619.176 413.124 622.329 407.518 625.416 399.955C628.253 392.45 631.501 386.69 635.159 382.674C638.942 378.629 643.45 375.991 648.683 374.761C655.786 373.091 662.103 374.236 667.636 378.195C673.169 382.153 676.902 388.245 678.835 396.468C679.421 398.961 679.681 401.464 679.615 403.977C679.673 406.462 679.299 408.785 678.492 410.947C678.008 412.245 677.143 413.04 675.897 413.333L655.425 418.54C653.556 418.979 652.446 418.451 652.095 416.956C651.89 416.084 651.992 415.402 652.403 414.911C652.938 414.391 653.612 413.904 654.426 413.45C661.939 409.053 666.96 405.243 669.49 402.019C672.143 398.765 673.046 395.331 672.196 391.718C671.434 388.478 669.683 386.063 666.942 384.472C664.201 382.881 661.149 382.481 657.785 383.272C653.424 384.297 649.931 386.499 647.306 389.877C644.682 393.256 641.808 398.928 638.684 406.894C635.663 414.179 631.902 419.994 627.401 424.34C623.054 428.78 617.828 431.718 611.722 433.154C603.747 435.029 596.73 433.983 590.669 430.017C584.733 426.021 580.784 419.849 578.821 411.501ZM595.019 480.397C593.613 474.416 594.347 468.589 597.221 462.917C600.095 457.245 604.809 452.126 611.362 447.561C618.069 443.091 626.22 439.729 635.814 437.473C645.658 435.159 654.654 434.556 662.804 435.664C670.954 436.772 677.733 439.321 683.142 443.309C688.55 447.297 691.972 452.344 693.407 458.449C695.136 465.801 693.474 472.437 688.423 478.358C683.526 484.375 674.287 488.979 660.705 492.172C656.593 493.139 654.171 492.065 653.439 488.95L645.09 453.438C644.504 450.946 642.778 450.037 639.912 450.711C626.704 453.816 617.253 458.076 611.557 463.491C605.861 468.907 603.716 474.605 605.122 480.586C606.235 485.32 608.826 488.788 612.893 490.987C616.96 493.187 623.201 494.284 631.615 494.278C633.073 494.329 633.949 494.978 634.242 496.224C634.594 497.719 633.479 498.573 630.9 498.785C619.341 499.399 610.806 498.052 605.295 494.746C599.909 491.41 596.484 486.627 595.019 480.397ZM649.631 451.779L654.069 470.656C655.475 476.637 659.293 478.895 665.523 477.43C673.622 475.526 679.743 473.035 683.884 469.958C688.026 466.88 689.628 463.348 688.691 459.361C687.548 454.501 683.778 451.048 677.38 449.002C671.011 447.081 662.538 446.838 651.962 448.272C649.91 448.492 649.133 449.661 649.631 451.779Z" fill="#DEDBCC"/>
</g>
<rect x="74" y="24" width="182" height="678" fill="#009179"/>
<rect x="274" y="24" width="182" height="678" fill="#363529"/>
<g filter="url(#filter1_b_28_92)">
<path d="M131.772 420.818C121.807 420.818 113.053 417.721 105.512 411.526C98.1053 405.331 92.3147 396.645 88.14 385.468C84.1 374.156 82.08 360.824 82.08 345.472C82.08 330.659 84.302 317.731 88.746 306.688C93.3247 295.511 99.3847 286.892 106.926 280.832C114.602 274.637 123.086 271.54 132.378 271.54C137.899 271.54 142.747 272.079 146.922 273.156C151.097 274.099 154.8 275.378 158.032 276.994C159.648 277.937 160.456 279.351 160.456 281.236L161.062 311.94C161.062 314.229 160.254 315.374 158.638 315.374C157.157 315.374 156.214 314.499 155.81 312.748L153.79 305.274C150.962 294.77 147.663 287.498 143.892 283.458C140.256 279.418 135.879 277.398 130.762 277.398C121.335 277.398 113.457 283.256 107.128 294.972C100.933 306.553 97.836 323.387 97.836 345.472C97.836 360.555 99.3847 373.281 102.482 383.65C105.714 394.019 109.821 401.83 114.804 407.082C119.921 412.334 125.308 414.96 130.964 414.96C137.024 414.96 141.872 413.075 145.508 409.304C149.279 405.533 152.443 398.261 155.002 387.488L157.426 377.59C157.83 375.57 158.907 374.695 160.658 374.964C162.139 375.233 162.88 376.378 162.88 378.398L162.072 411.122C162.072 413.007 161.197 414.421 159.446 415.364C156.214 416.98 152.376 418.259 147.932 419.202C143.623 420.279 138.236 420.818 131.772 420.818ZM195.295 420.818C189.639 420.818 184.993 419.067 181.357 415.566C177.721 411.93 175.903 407.149 175.903 401.224C175.903 395.433 177.721 389.979 181.357 384.862C184.993 379.61 189.975 374.897 196.305 370.722C202.634 366.547 209.839 363.181 217.919 360.622C219.669 360.083 220.545 358.939 220.545 357.188V338.806C220.545 332.342 219.535 327.763 217.515 325.07C215.495 322.242 212.734 320.828 209.233 320.828C205.866 320.828 202.769 322.377 199.941 325.474C197.247 328.437 195.295 333.487 194.083 340.624C193.409 344.933 191.928 348.098 189.639 350.118C187.484 352.003 185.262 352.946 182.973 352.946C179.202 352.946 177.317 351.061 177.317 347.29C177.317 343.385 178.394 339.547 180.549 335.776C182.838 331.871 185.801 328.369 189.437 325.272C193.073 322.04 197.045 319.481 201.355 317.596C205.664 315.711 209.973 314.768 214.283 314.768C227.615 314.768 234.281 322.511 234.281 337.998V399.81C234.281 405.466 235.695 408.294 238.523 408.294C240.273 408.294 241.889 407.149 243.371 404.86C244.852 402.436 245.593 398.396 245.593 392.74C245.593 390.585 246.468 389.508 248.219 389.508C249.835 389.508 250.643 390.653 250.643 392.942C250.643 402.773 248.892 409.91 245.391 414.354C242.024 418.663 238.186 420.818 233.877 420.818C230.645 420.818 228.086 419.539 226.201 416.98C224.315 414.287 223.036 411.122 222.363 407.486C222.228 406.139 221.622 405.466 220.545 405.466C219.602 405.331 218.659 405.937 217.717 407.284C214.485 411.728 211.185 415.095 207.819 417.384C204.452 419.673 200.277 420.818 195.295 420.818ZM200.749 411.526C204.25 411.526 207.482 410.314 210.445 407.89C213.407 405.331 215.831 401.965 217.717 397.79C219.602 393.615 220.545 388.902 220.545 383.65V368.904C220.545 366.345 219.131 365.605 216.303 366.682C208.088 369.645 201.691 373.752 197.113 379.004C192.669 384.121 190.447 390.316 190.447 397.588C190.447 406.88 193.881 411.526 200.749 411.526ZM317.169 328.908C322.69 319.481 329.356 314.768 337.167 314.768C341.611 314.768 344.91 316.115 347.065 318.808C349.219 321.367 350.297 324.262 350.297 327.494C350.297 330.053 349.623 332.14 348.277 333.756C347.065 335.372 345.112 336.18 342.419 336.18C340.264 336.18 338.648 335.709 337.571 334.766C336.628 333.689 335.82 332.477 335.147 331.13C334.608 329.783 333.935 328.639 333.127 327.696C332.319 326.619 330.972 326.08 329.087 326.08C326.663 326.08 324.373 327.561 322.219 330.524C320.064 333.352 318.246 337.19 316.765 342.038C315.418 346.886 314.745 352.407 314.745 358.602V405.466C314.745 408.294 315.149 410.314 315.957 411.526C316.899 412.738 318.785 413.479 321.613 413.748L327.067 414.354C328.548 414.623 329.289 415.364 329.289 416.576C329.289 418.192 328.279 419 326.259 419H292.121C290.101 419 289.091 418.259 289.091 416.778C289.091 415.566 289.966 414.758 291.717 414.354L294.141 413.95C296.969 413.411 298.787 412.603 299.595 411.526C300.537 410.314 301.009 408.294 301.009 405.466V337.594C301.009 335.17 300.605 333.554 299.797 332.746C299.123 331.803 297.844 331.197 295.959 330.928L291.717 330.322C289.966 330.187 289.091 329.447 289.091 328.1C289.091 327.023 290.168 326.282 292.323 325.878C296.497 325.205 299.662 324.127 301.817 322.646C304.106 321.165 306.463 319.347 308.887 317.192C310.099 315.98 311.109 315.374 311.917 315.374C313.129 315.374 313.735 316.182 313.735 317.798V328.706C313.735 329.649 314.139 330.255 314.947 330.524C315.755 330.659 316.495 330.12 317.169 328.908ZM386.931 420.818C381.006 420.818 375.686 418.798 370.973 414.758C366.394 410.583 362.826 404.86 360.267 397.588C357.708 390.181 356.429 381.63 356.429 371.934C356.429 360.622 358.18 350.724 361.681 342.24C365.182 333.621 370.03 326.888 376.225 322.04C382.42 317.192 389.422 314.768 397.233 314.768C399.118 314.768 401.004 314.97 402.889 315.374C404.774 315.643 406.592 316.182 408.343 316.99C410.498 318.067 411.575 317.596 411.575 315.576V289.72C411.575 287.296 411.171 285.613 410.363 284.67C409.69 283.727 408.41 283.189 406.525 283.054L401.273 282.448C399.792 282.179 399.051 281.371 399.051 280.024C399.051 278.677 399.792 277.869 401.273 277.6C405.582 276.792 409.016 275.849 411.575 274.772C414.268 273.695 416.49 272.617 418.241 271.54C420.396 270.193 422.012 269.52 423.089 269.52C424.57 269.52 425.311 270.597 425.311 272.752V399.81C425.311 405.466 426.725 408.294 429.553 408.294C431.304 408.294 432.92 407.149 434.401 404.86C435.882 402.436 436.623 398.396 436.623 392.74C436.623 390.585 437.498 389.508 439.249 389.508C440.865 389.508 441.673 390.653 441.673 392.942C441.673 402.773 439.99 409.91 436.623 414.354C433.256 418.663 429.418 420.818 425.109 420.818C421.204 420.818 418.241 419.539 416.221 416.98C414.201 414.287 412.854 411.122 412.181 407.486C412.046 406.409 411.575 405.87 410.767 405.87C409.959 405.735 409.218 406.207 408.545 407.284C404.774 412.536 401.34 416.105 398.243 417.99C395.146 419.875 391.375 420.818 386.931 420.818ZM391.375 411.526C394.876 411.526 398.108 410.381 401.071 408.092C404.168 405.668 406.66 402.436 408.545 398.396C410.565 394.356 411.575 389.845 411.575 384.862V339.412C411.575 333.352 410.161 328.571 407.333 325.07C404.64 321.569 401.071 319.818 396.627 319.818C389.086 319.818 382.958 324.262 378.245 333.15C373.666 341.903 371.377 353.889 371.377 369.106C371.377 382.977 373.128 393.548 376.629 400.82C380.265 407.957 385.18 411.526 391.375 411.526Z" fill="#DEDBCC"/>
</g>
<defs>
<filter id="filter0_b_28_92" x="532.447" y="195.669" width="207.063" height="314.708" filterUnits="userSpaceOnUse" color-interpolation-filters="sRGB">
<feFlood flood-opacity="0" result="BackgroundImageFix"/>
<feGaussianBlur in="BackgroundImageFix" stdDeviation="2"/>
<feComposite in2="SourceAlpha" operator="in" result="effect1_backgroundBlur_28_92"/>
<feBlend mode="normal" in="SourceGraphic" in2="effect1_backgroundBlur_28_92" result="shape"/>
</filter>
<filter id="filter1_b_28_92" x="78.08" y="265.52" width="367.593" height="159.298" filterUnits="userSpaceOnUse" color-interpolation-filters="sRGB">
<feFlood flood-opacity="0" result="BackgroundImageFix"/>
<feGaussianBlur in="BackgroundImageFix" stdDeviation="2"/>
<feComposite in2="SourceAlpha" operator="in" result="effect1_backgroundBlur_28_92"/>
<feBlend mode="normal" in="SourceGraphic" in2="effect1_backgroundBlur_28_92" result="shape"/>
</filter>
</defs>
</svg>
