<svg width="1361" height="359" viewBox="0 0 1361 359" fill="none" xmlns="http://www.w3.org/2000/svg">
<path d="M427.083 282.304C414.454 282.304 403.361 278.379 393.803 270.528C384.417 262.677 377.078 251.669 371.787 237.504C366.667 223.168 364.107 206.272 364.107 186.816C364.107 168.043 366.923 151.659 372.555 137.664C378.358 123.499 386.038 112.576 395.595 104.896C405.323 97.0453 416.075 93.12 427.851 93.12C434.849 93.12 440.993 93.8027 446.284 95.168C451.574 96.3627 456.267 97.984 460.363 100.032C462.411 101.227 463.436 103.019 463.436 105.408L464.203 144.32C464.203 147.221 463.179 148.672 461.132 148.672C459.254 148.672 458.059 147.563 457.548 145.344L454.987 135.872C451.403 122.56 447.222 113.344 442.443 108.224C437.835 103.104 432.289 100.544 425.803 100.544C413.857 100.544 403.873 107.968 395.851 122.816C388.001 137.493 384.075 158.827 384.075 186.816C384.075 205.931 386.038 222.059 389.963 235.2C394.059 248.341 399.265 258.24 405.579 264.896C412.065 271.552 418.891 274.88 426.059 274.88C433.739 274.88 439.883 272.491 444.491 267.712C449.27 262.933 453.281 253.717 456.523 240.064L459.595 227.52C460.107 224.96 461.473 223.851 463.691 224.192C465.569 224.533 466.507 225.984 466.507 228.544L465.483 270.016C465.483 272.405 464.374 274.197 462.155 275.392C458.059 277.44 453.195 279.061 447.563 280.256C442.102 281.621 435.275 282.304 427.083 282.304ZM473.099 280C470.539 280 469.259 279.147 469.259 277.44C469.259 275.733 470.454 274.624 472.843 274.112L476.683 273.344C480.097 272.661 482.657 271.04 484.363 268.48C486.07 265.749 487.521 261.995 488.715 257.216L528.395 97.216C528.737 95.5093 529.249 94.4 529.931 93.888C530.785 93.376 531.553 93.12 532.235 93.12C533.089 93.12 533.857 93.376 534.539 93.888C535.393 94.4 535.99 95.5093 536.331 97.216L576.779 259.52C577.974 264.299 579.339 267.627 580.875 269.504C582.411 271.381 584.801 272.661 588.043 273.344L591.883 274.112C594.273 274.624 595.467 275.733 595.467 277.44C595.467 279.147 594.187 280 591.627 280H547.851C545.462 280 544.267 279.061 544.267 277.184C544.267 275.307 545.718 274.283 548.619 274.112L553.483 273.6C556.385 273.259 558.177 272.32 558.859 270.784C559.713 269.248 559.713 266.603 558.859 262.848L549.131 223.168C548.107 218.731 545.291 216.512 540.683 216.512H513.803C509.366 216.512 506.55 218.731 505.355 223.168L496.651 257.472C494.091 267.2 496.651 272.576 504.331 273.6L508.171 274.112C511.073 274.624 512.523 275.648 512.523 277.184C512.523 279.061 511.329 280 508.939 280H473.099ZM513.035 208.832H541.195C543.926 208.832 545.035 207.381 544.523 204.48L528.139 135.872H526.859L509.707 204.48C509.195 207.381 510.305 208.832 513.035 208.832ZM703.567 282.304C688.719 282.304 679.247 272.576 675.151 253.12L669.263 224.704C667.386 215.488 665.253 208.491 662.863 203.712C660.645 198.933 657.487 195.691 653.391 193.984C649.466 192.277 644.005 191.424 637.007 191.424C634.618 191.424 632.741 192.107 631.375 193.472C630.01 194.667 629.327 196.203 629.327 198.08V262.08C629.327 265.664 630.01 268.139 631.375 269.504C632.741 270.699 635.813 271.723 640.591 272.576L650.063 274.112C651.941 274.453 652.879 275.392 652.879 276.928C652.879 278.976 651.599 280 649.039 280H597.071C594.511 280 593.231 279.061 593.231 277.184C593.231 275.648 594.341 274.624 596.559 274.112L602.447 273.088C606.031 272.405 608.335 271.467 609.359 270.272C610.554 269.077 611.151 266.688 611.151 263.104V112.576C611.151 108.992 610.554 106.603 609.359 105.408C608.335 104.213 606.031 103.275 602.447 102.592L596.559 101.568C594.341 101.056 593.231 100.032 593.231 98.496C593.231 96.6187 594.511 95.68 597.071 95.68H649.039C659.109 95.68 668.069 97.6427 675.919 101.568C683.77 105.493 689.914 110.955 694.352 117.952C698.789 124.779 701.007 132.715 701.007 141.76C701.007 152.512 697.765 162.24 691.279 170.944C684.794 179.477 676.602 185.536 666.703 189.12C665.509 189.461 664.826 190.059 664.655 190.912C664.655 191.595 665.253 192.192 666.447 192.704C671.909 195.264 676.175 198.848 679.247 203.456C682.49 208.064 684.965 214.208 686.671 221.888L692.303 248C694.181 256.875 696.399 263.189 698.959 266.944C701.519 270.699 704.762 272.576 708.688 272.576C710.053 272.576 711.247 272.405 712.271 272.064C713.466 271.552 714.917 270.699 716.624 269.504C717.989 268.651 719.269 268.48 720.464 268.992C721.658 269.333 722.255 270.187 722.255 271.552C722.255 274.453 720.378 277.013 716.624 279.232C712.869 281.28 708.517 282.304 703.567 282.304ZM646.479 185.024C658.085 185.024 666.874 181.184 672.847 173.504C678.821 165.653 681.807 155.243 681.807 142.272C681.807 129.643 678.309 119.829 671.311 112.832C664.485 105.664 655.013 102.08 642.895 102.08C633.85 102.08 629.327 105.493 629.327 112.32V170.944C629.327 180.331 635.045 185.024 646.479 185.024ZM725.321 280C722.761 280 721.481 279.061 721.481 277.184C721.481 275.648 722.591 274.624 724.809 274.112L730.697 273.088C736.5 272.064 739.401 268.736 739.401 263.104V112.576C739.401 108.992 738.804 106.603 737.609 105.408C736.585 104.213 734.281 103.275 730.697 102.592L724.809 101.568C722.591 101.056 721.481 100.032 721.481 98.496C721.481 96.6187 722.761 95.68 725.321 95.68H777.033C790.345 95.68 801.865 99.6053 811.593 107.456C821.322 115.136 828.831 125.973 834.121 139.968C839.412 153.963 842.057 170.176 842.057 188.608C842.057 207.211 839.241 223.339 833.609 236.992C828.148 250.645 820.383 261.227 810.313 268.736C800.244 276.245 788.297 280 774.473 280H725.321ZM775.497 273.344C790.687 273.344 802.207 266.091 810.057 251.584C818.079 237.077 822.09 216.085 822.09 188.608C822.09 161.301 818.249 140.139 810.569 125.12C803.06 109.931 791.881 102.336 777.033 102.336C764.063 102.336 757.577 108.565 757.577 121.024V254.656C757.577 261.483 758.943 266.347 761.673 269.248C764.575 271.979 769.183 273.344 775.497 273.344ZM991.099 282.56C990.417 282.56 989.734 282.304 989.051 281.792C988.539 281.28 988.284 280.171 988.284 278.464L987.003 202.176C987.003 200.299 986.491 199.275 985.467 199.104C984.443 198.763 983.505 199.445 982.651 201.152L943.227 278.464C942.374 280.171 941.606 281.28 940.923 281.792C940.241 282.304 939.558 282.56 938.875 282.56C938.193 282.56 937.51 282.304 936.827 281.792C936.145 281.28 935.803 280.171 935.803 278.464L932.987 116.16C932.817 111.381 932.219 108.053 931.195 106.176C930.171 104.299 928.038 103.019 924.795 102.336L921.467 101.568C919.419 101.056 918.395 100.032 918.395 98.496C918.395 97.472 918.822 96.7893 919.675 96.448C920.529 95.936 921.553 95.68 922.747 95.68H963.707C965.926 95.68 967.035 96.5333 967.035 98.24C967.035 99.776 965.499 100.885 962.427 101.568L959.355 102.08C956.454 102.592 954.15 103.616 952.443 105.152C950.907 106.517 950.139 109.077 950.139 112.832L951.675 235.456C951.675 236.992 952.187 237.845 953.211 238.016C954.235 238.187 955.089 237.504 955.771 235.968L976.763 195.776C980.177 189.12 982.651 182.805 984.188 176.832C985.723 170.859 986.406 164.032 986.235 156.352L985.467 116.16C985.297 111.381 984.87 107.968 984.188 105.92C983.675 103.872 982.481 102.677 980.604 102.336L977.275 101.568C975.057 101.056 973.947 100.117 973.947 98.752C973.947 96.704 975.483 95.68 978.555 95.68H1012.86C1015.08 95.68 1016.19 96.5333 1016.19 98.24C1016.19 99.9467 1014.65 101.056 1011.58 101.568L1008.51 102.08C1006.29 102.421 1004.75 103.36 1003.9 104.896C1003.22 106.432 1002.88 109.077 1002.88 112.832L1003.39 147.392C1003.39 149.099 1003.9 150.123 1004.92 150.464C1005.95 150.635 1006.8 149.952 1007.48 148.416L1023.36 118.208C1026.77 111.723 1028.48 107.456 1028.48 105.408C1028.48 103.36 1027.71 102.251 1026.17 102.08L1023.61 101.568C1021.39 101.056 1020.28 100.032 1020.28 98.496C1020.28 96.6187 1021.73 95.68 1024.64 95.68H1048.7C1051.43 95.68 1052.8 96.5333 1052.8 98.24C1052.8 100.117 1051.09 101.227 1047.68 101.568L1044.86 101.824C1042.47 101.995 1040.25 103.36 1038.2 105.92C1036.16 108.48 1033.68 112.661 1030.78 118.464L1013.12 152.512C1009.7 159.339 1007.23 165.739 1005.69 171.712C1004.16 177.515 1003.47 184.256 1003.64 191.936L1004.16 234.432C1004.16 235.968 1004.67 236.821 1005.69 236.992C1006.72 236.992 1007.57 236.309 1008.25 234.944L1064.32 118.208C1066.7 113.259 1067.81 109.504 1067.64 106.944C1067.64 104.384 1066.19 102.763 1063.29 102.08L1060.73 101.568C1058.51 101.056 1057.4 100.032 1057.4 98.496C1057.4 96.6187 1058.85 95.68 1061.76 95.68H1090.68C1093.07 95.68 1094.27 96.6187 1094.27 98.496C1094.27 100.373 1092.56 101.397 1089.15 101.568L1086.33 101.824C1083.94 101.995 1081.81 103.104 1079.93 105.152C1078.22 107.029 1075.66 111.467 1072.25 118.464L995.451 278.464C994.769 280.171 994.001 281.28 993.147 281.792C992.465 282.304 991.782 282.56 991.099 282.56ZM1054.99 280C1052.6 280 1051.4 279.147 1051.4 277.44C1051.4 275.563 1053.11 274.368 1056.52 273.856L1061.64 273.088C1065.4 272.576 1067.96 271.723 1069.32 270.528C1070.86 269.163 1071.97 266.688 1072.65 263.104L1107.47 112.576C1108.32 108.992 1108.32 106.603 1107.47 105.408C1106.61 104.213 1104.48 103.275 1101.07 102.592L1095.95 101.568C1093.73 101.056 1092.62 100.117 1092.62 98.752C1092.62 96.704 1094.15 95.68 1097.23 95.68H1142.79C1145.18 95.68 1146.38 96.5333 1146.38 98.24C1146.38 100.117 1144.67 101.312 1141.26 101.824L1136.14 102.592C1132.38 103.104 1129.82 104.043 1128.46 105.408C1127.09 106.603 1125.98 108.992 1125.13 112.576L1090.31 263.104C1089.63 266.688 1089.63 269.077 1090.31 270.272C1091.17 271.467 1093.3 272.405 1096.71 273.088L1101.83 274.112C1104.05 274.624 1105.16 275.563 1105.16 276.928C1105.16 278.976 1103.63 280 1100.55 280H1054.99ZM1168.91 282.304C1164.13 282.304 1159.01 281.792 1153.55 280.768C1148.25 279.744 1143.22 278.379 1138.44 276.672C1133.83 274.795 1130.16 272.661 1127.43 270.272C1126.58 269.419 1125.98 268.565 1125.64 267.712C1125.47 266.859 1125.56 265.579 1125.9 263.872L1133.07 223.68C1133.58 220.608 1134.94 219.072 1137.16 219.072C1139.21 219.072 1140.23 220.779 1140.23 224.192L1140.49 234.176C1140.83 248.512 1143.31 258.837 1147.91 265.152C1152.52 271.467 1160.03 274.624 1170.44 274.624C1180 274.624 1187.93 271.211 1194.25 264.384C1200.56 257.387 1203.72 248.085 1203.72 236.48C1203.72 228.971 1201.67 221.12 1197.58 212.928C1193.48 204.736 1187.76 196.544 1180.43 188.352C1171.72 178.624 1165.24 169.749 1160.97 161.728C1156.87 153.707 1154.83 145.259 1154.83 136.384C1154.83 129.387 1156.53 122.645 1159.95 116.16C1163.36 109.504 1168.48 104.043 1175.31 99.776C1182.3 95.3387 1191.18 93.12 1201.93 93.12C1216.78 93.12 1228.13 96.448 1235.98 103.104C1238.37 104.981 1239.22 107.797 1238.54 111.552L1231.37 148.928C1230.86 151.488 1229.66 152.768 1227.79 152.768C1225.91 152.768 1224.8 151.317 1224.46 148.416L1224.2 143.04C1223.52 129.216 1221.56 118.72 1218.31 111.552C1215.24 104.213 1209.01 100.544 1199.63 100.544C1192.8 100.544 1187.34 102.08 1183.24 105.152C1179.15 108.224 1176.16 112.064 1174.28 116.672C1172.4 121.109 1171.47 125.547 1171.47 129.984C1171.47 134.933 1172.15 139.712 1173.51 144.32C1174.88 148.757 1177.18 153.536 1180.43 158.656C1183.84 163.605 1188.45 169.664 1194.25 176.832C1202.44 186.56 1208.84 195.861 1213.45 204.736C1218.06 213.611 1220.36 222.229 1220.36 230.592C1220.36 240.661 1218.06 249.621 1213.45 257.472C1209.01 265.152 1202.95 271.211 1195.27 275.648C1187.59 280.085 1178.8 282.304 1168.91 282.304ZM1225.99 280C1223.6 280 1222.4 279.147 1222.4 277.44C1222.4 275.563 1224.11 274.368 1227.52 273.856L1232.64 273.088C1236.4 272.576 1238.96 271.723 1240.32 270.528C1241.86 269.163 1242.97 266.688 1243.65 263.104L1278.47 112.576C1279.32 108.992 1279.32 106.603 1278.47 105.408C1277.61 104.213 1275.48 103.275 1272.07 102.592L1266.95 101.568C1264.73 101.056 1263.62 100.117 1263.62 98.752C1263.62 96.704 1265.15 95.68 1268.23 95.68H1353.73C1358.17 95.68 1359.96 97.6427 1359.11 101.568L1351.17 144.064C1350.66 146.965 1349.29 148.416 1347.07 148.416C1344.68 148.416 1343.66 147.307 1344 145.088L1344.77 136.128C1345.62 127.424 1344.85 120.597 1342.47 115.648C1340.25 110.699 1336.83 107.2 1332.23 105.152C1327.79 103.104 1322.58 102.08 1316.61 102.08C1309.78 102.08 1304.83 103.104 1301.76 105.152C1298.69 107.029 1296.56 110.443 1295.36 115.392L1281.28 177.088C1280.77 179.477 1281.71 180.672 1284.1 180.672H1297.15C1304.66 180.672 1310.12 176.661 1313.54 168.64L1319.17 155.84C1320.02 153.621 1321.39 152.512 1323.27 152.512C1324.29 152.512 1325.06 152.939 1325.57 153.792C1326.25 154.475 1326.42 155.499 1326.08 156.864L1312.77 214.464C1311.92 217.365 1310.47 218.816 1308.42 218.816C1306.37 218.816 1305.35 217.707 1305.35 215.488L1305.6 202.944C1305.77 196.971 1305 193.045 1303.3 191.168C1301.76 189.291 1299.03 188.352 1295.11 188.352H1282.31C1279.75 188.352 1278.21 189.547 1277.7 191.936L1262.85 256.192C1261.48 262.336 1262.08 266.773 1264.64 269.504C1267.2 272.235 1272.66 273.6 1281.03 273.6C1286.15 273.6 1291.18 272.832 1296.13 271.296C1301.25 269.589 1306.03 266.432 1310.47 261.824C1315.07 257.216 1319.25 250.56 1323.01 241.856L1329.15 227.52C1330.01 225.301 1331.37 224.192 1333.25 224.192C1335.81 224.192 1336.66 225.643 1335.81 228.544L1322.75 274.112C1321.73 278.037 1319.17 280 1315.07 280H1225.99Z" fill="#6A6A6A"/>
<path d="M627.783 347C627.383 347 627.183 346.853 627.183 346.56C627.183 346.32 627.356 346.16 627.703 346.08L628.623 345.92C629.529 345.76 629.983 345.24 629.983 344.36V320.84C629.983 320.28 629.889 319.907 629.703 319.72C629.543 319.533 629.183 319.387 628.623 319.28L627.703 319.12C627.356 319.04 627.183 318.88 627.183 318.64C627.183 318.347 627.383 318.2 627.783 318.2H635.863C637.943 318.2 639.743 318.813 641.263 320.04C642.783 321.24 643.956 322.933 644.783 325.12C645.609 327.307 646.023 329.84 646.023 332.72C646.023 335.627 645.583 338.147 644.703 340.28C643.849 342.413 642.636 344.067 641.063 345.24C639.489 346.413 637.623 347 635.463 347H627.783ZM635.623 345.96C637.996 345.96 639.796 344.827 641.023 342.56C642.276 340.293 642.903 337.013 642.903 332.72C642.903 328.453 642.303 325.147 641.103 322.8C639.929 320.427 638.183 319.24 635.863 319.24C633.836 319.24 632.823 320.213 632.823 322.16V343.04C632.823 344.107 633.036 344.867 633.463 345.32C633.916 345.747 634.636 345.96 635.623 345.96ZM648.603 347C648.203 347 648.003 346.853 648.003 346.56C648.003 346.32 648.176 346.16 648.523 346.08L649.443 345.92C650.003 345.813 650.363 345.667 650.523 345.48C650.71 345.293 650.803 344.92 650.803 344.36V320.84C650.803 320.28 650.71 319.907 650.523 319.72C650.363 319.533 650.003 319.387 649.443 319.28L648.523 319.12C648.176 319.04 648.003 318.88 648.003 318.64C648.003 318.347 648.203 318.2 648.603 318.2H655.843C656.243 318.2 656.443 318.347 656.443 318.64C656.443 318.88 656.27 319.04 655.923 319.12L655.003 319.28C654.443 319.387 654.07 319.533 653.883 319.72C653.723 319.907 653.643 320.28 653.643 320.84V344.36C653.643 344.92 653.723 345.293 653.883 345.48C654.07 345.667 654.443 345.813 655.003 345.92L655.923 346.08C656.27 346.16 656.443 346.32 656.443 346.56C656.443 346.853 656.243 347 655.843 347H648.603ZM661.924 347C661.524 347 661.324 346.853 661.324 346.56C661.324 346.267 661.497 346.107 661.844 346.08L663.644 345.8C664.177 345.72 664.537 345.587 664.724 345.4C664.911 345.187 665.004 344.8 665.004 344.24V320.24C665.004 319.867 664.924 319.6 664.764 319.44C664.604 319.28 664.271 319.2 663.764 319.2C662.777 319.2 661.804 319.627 660.844 320.48C659.884 321.333 659.257 322.707 658.964 324.6L658.764 325.92C658.711 326.267 658.524 326.44 658.204 326.44C657.804 326.44 657.631 326.213 657.684 325.76L658.044 318.52C658.097 317.907 658.337 317.6 658.764 317.6C658.951 317.6 659.124 317.653 659.284 317.76C659.444 317.84 659.711 317.933 660.084 318.04C660.484 318.147 661.111 318.2 661.964 318.2H670.884C671.737 318.2 672.351 318.147 672.724 318.04C673.124 317.933 673.404 317.84 673.564 317.76C673.751 317.653 673.924 317.6 674.084 317.6C674.511 317.6 674.751 317.907 674.804 318.52L675.164 325.76C675.217 326.213 675.044 326.44 674.644 326.44C674.324 326.44 674.137 326.267 674.084 325.92L673.884 324.6C673.617 322.707 673.004 321.333 672.044 320.48C671.084 319.627 670.097 319.2 669.084 319.2C668.577 319.2 668.244 319.28 668.084 319.44C667.924 319.6 667.844 319.867 667.844 320.24V344.24C667.844 344.8 667.937 345.187 668.124 345.4C668.337 345.587 668.697 345.72 669.204 345.8L671.004 346.08C671.351 346.107 671.524 346.267 671.524 346.56C671.524 346.853 671.324 347 670.924 347H661.924ZM687.838 347.36C686.452 347.36 685.332 347.107 684.478 346.6C683.652 346.093 683.238 345.427 683.238 344.6C683.238 344.147 683.372 343.8 683.638 343.56C683.905 343.293 684.252 343.16 684.678 343.16C685.185 343.16 685.518 343.32 685.678 343.64C685.838 343.96 685.958 344.32 686.038 344.72C686.118 345.12 686.292 345.48 686.558 345.8C686.852 346.12 687.358 346.28 688.078 346.28C689.598 346.28 690.825 345.573 691.758 344.16C692.718 342.72 693.198 340.84 693.198 338.52C693.198 333.373 691.732 330.8 688.798 330.8C687.732 330.8 686.825 331.053 686.078 331.56C685.652 331.88 685.332 331.92 685.118 331.68C684.958 331.413 685.065 331.093 685.438 330.72L688.318 328C689.492 326.907 690.345 325.907 690.878 325C691.412 324.093 691.678 323.187 691.678 322.28C691.678 321.293 691.452 320.533 690.998 320C690.572 319.44 689.972 319.16 689.198 319.16C688.185 319.16 687.332 319.533 686.638 320.28C685.945 321.027 685.492 322.053 685.278 323.36C685.225 323.76 685.025 323.96 684.678 323.96C684.305 323.96 684.145 323.72 684.198 323.24C684.385 321.587 684.998 320.267 686.038 319.28C687.105 318.293 688.412 317.8 689.958 317.8C691.292 317.8 692.358 318.173 693.158 318.92C693.985 319.64 694.398 320.613 694.398 321.84C694.398 323.947 692.678 326.187 689.238 328.56L688.318 329.2C688.212 329.28 688.172 329.373 688.198 329.48C688.252 329.56 688.345 329.587 688.478 329.56C688.932 329.427 689.385 329.36 689.838 329.36C691.065 329.36 692.145 329.707 693.078 330.4C694.012 331.093 694.745 332.067 695.278 333.32C695.812 334.547 696.078 335.96 696.078 337.56C696.078 338.84 695.852 340.067 695.398 341.24C694.945 342.413 694.332 343.467 693.558 344.4C692.785 345.307 691.905 346.027 690.918 346.56C689.932 347.093 688.905 347.36 687.838 347.36ZM704.082 347C703.682 347 703.482 346.853 703.482 346.56C703.482 346.267 703.655 346.107 704.002 346.08L705.722 345.84C706.282 345.76 706.642 345.627 706.802 345.44C706.989 345.227 707.082 344.867 707.082 344.36V339.16C707.082 338.787 706.895 338.6 706.522 338.6H698.442C697.935 338.6 697.682 338.373 697.682 337.92C697.682 337.787 697.709 337.653 697.762 337.52C697.842 337.36 697.935 337.16 698.042 336.92L707.642 318.6C707.749 318.333 707.962 318.2 708.282 318.2H709.082C709.562 318.2 709.682 318.427 709.442 318.88L699.842 335.8C699.655 336.173 699.762 336.36 700.162 336.36H706.522C706.895 336.36 707.082 336.173 707.082 335.8V327.96C707.082 327.72 707.215 327.507 707.482 327.32L708.962 326.48C709.149 326.373 709.309 326.36 709.442 326.44C709.575 326.493 709.642 326.627 709.642 326.84V335.8C709.642 336.173 709.829 336.36 710.202 336.36H711.962C712.282 336.36 712.442 336.52 712.442 336.84V338.12C712.442 338.44 712.282 338.6 711.962 338.6H710.202C709.829 338.6 709.642 338.787 709.642 339.16V344.36C709.642 344.92 709.722 345.293 709.882 345.48C710.069 345.667 710.442 345.813 711.002 345.92L711.922 346.08C712.269 346.16 712.442 346.32 712.442 346.56C712.442 346.853 712.242 347 711.842 347H704.082ZM714.505 347C714.025 347 713.785 346.827 713.785 346.48C713.785 346.293 713.879 346.053 714.065 345.76L718.865 338.44C720.865 335.4 722.305 332.787 723.185 330.6C724.092 328.387 724.545 326.36 724.545 324.52C724.545 322.867 724.199 321.6 723.505 320.72C722.839 319.84 721.865 319.4 720.585 319.4C719.305 319.4 718.145 319.853 717.105 320.76C716.065 321.64 715.399 323.053 715.105 325C715.025 325.427 714.825 325.64 714.505 325.64C714.105 325.64 713.932 325.373 713.985 324.84C714.172 323.08 714.625 321.693 715.345 320.68C716.092 319.64 716.985 318.907 718.025 318.48C719.065 318.027 720.119 317.8 721.185 317.8C723.025 317.8 724.519 318.36 725.665 319.48C726.839 320.573 727.425 322.107 727.425 324.08C727.425 325.467 727.092 326.893 726.425 328.36C725.785 329.8 724.892 331.387 723.745 333.12C722.625 334.827 721.332 336.787 719.865 339L716.745 343.72C716.585 343.96 716.572 344.173 716.705 344.36C716.865 344.52 717.079 344.6 717.345 344.6H721.625C722.639 344.6 723.479 344.493 724.145 344.28C724.812 344.04 725.345 343.613 725.745 343C726.145 342.36 726.452 341.453 726.665 340.28L727.025 338.4C727.105 338.053 727.305 337.88 727.625 337.88C727.999 337.88 728.159 338.107 728.105 338.56L727.625 346.08C727.572 346.693 727.239 347 726.625 347H714.505Z" fill="#6C6C6C"/>
<rect width="173.853" height="254.272" rx="30" transform="matrix(0.841002 -0.541033 0.548249 0.836315 0.555206 94.0601)" fill="#6A6A6A"/>
<path d="M45.6533 97.4101C39.1276 82.1807 46.2189 64.6286 61.4921 58.2063L166.66 13.9837C181.933 7.56135 199.605 14.7008 206.13 29.9302L282.509 208.181C289.035 223.41 281.944 240.962 266.67 247.384L161.502 291.607C146.229 298.029 128.558 290.89 122.032 275.661L45.6533 97.4101Z" fill="#DEDBCC"/>
<rect width="174.254" height="253.679" rx="30" transform="matrix(0.97483 -0.222947 0.226971 0.973902 72.2626 55.6443)" fill="#6A6A6A"/>
</svg>
